<svg xmlns="http://www.w3.org/2000/svg" width="24" height="24" viewBox="0 0 24 24">
  <path id="ic_copy" data-name="ic copy" d="M793.625,2765.517a1.241,1.241,0,0,0-.911-.375h-5.572a3.407,3.407,0,0,0-1.714.536v-4.393a1.28,1.28,0,0,0-1.286-1.285h-5.571a3.083,3.083,0,0,0-1.179.267,3.125,3.125,0,0,0-1.018.643l-5.464,5.464a3.566,3.566,0,0,0-.911,2.2v9a1.28,1.28,0,0,0,1.285,1.286h7.286v3.858a1.28,1.28,0,0,0,1.286,1.285h12.857a1.28,1.28,0,0,0,1.286-1.285v-16.286A1.24,1.24,0,0,0,793.625,2765.517Zm-8.2,2.478v4h-4Zm-8.572-5.143v4h-4Zm2.625,8.666a3.566,3.566,0,0,0-.911,2.2v3.428h-6.857v-8.571h5.571a1.28,1.28,0,0,0,1.286-1.286v-5.572h5.143v5.572Zm12.8,10.768h-12v-8.572h5.572a1.281,1.281,0,0,0,1.286-1.285v-5.572h5.143v15.429Z" transform="translate(-770 -2759.999)" fill="#fff" opacity="0.502"/>
</svg>
