<svg width="808" height="808" viewBox="0 0 808 808" fill="none" xmlns="http://www.w3.org/2000/svg">
<path d="M808 403.9C808 181 627.1 0.300049 404 0.300049C180.9 0.300049 0 181 0 404C0 627 180.9 807.7 404 807.7C627.1 807.7 808 627 808 404.1C808 404 808 404 808 403.9C808 404 808 404 808 403.9ZM405 333.2C444.1 333.2 475.9 365 475.9 404C475.9 443 444 474.8 405 474.8C365.9 474.8 334.1 443 334.1 404C334.1 365 365.9 333.2 405 333.2ZM373.4 493.5C383.3 497 393.9 499 405 499C457.5 499 500.1 456.5 500.1 404C500.1 351.5 457.5 309 405 309C393.9 309 383.3 311 373.4 314.5C395.7 293.8 424.9 281.9 456.3 281.9C489.3 281.9 520 295 542.7 317.7C565.4 340.4 578.5 371 578.5 404C578.5 437 565.4 467.6 542.7 490.3C520 513 489.4 526.1 456.3 526.1C424.9 526.1 395.7 514.2 373.4 493.5ZM397.2 537.8C415.3 545.8 435.2 550.3 456.2 550.3C537 550.3 602.6 484.8 602.6 404C602.6 323.2 537.1 257.7 456.2 257.7C435.2 257.7 415.2 262.2 397.2 270.2C428.1 244.7 466.7 230.6 507.6 230.6C554.2 230.6 597.7 248.8 630.3 281.4C662.9 314 681.1 357.5 681.1 404C681.1 450.5 662.9 494 630.3 526.6C597.7 559.2 554.2 577.4 507.6 577.4C466.7 577.4 428.1 563.3 397.2 537.8ZM310.9 383.8C310.2 390.4 309.9 397.2 309.9 404C309.9 410.8 310.2 417.6 310.9 424.2C321.2 552.2 428.2 652.9 558.9 652.9C599.7 652.9 638.2 642.9 672.2 625.5C654.4 638.8 635.3 650.1 614.9 658.7C581.1 673 544.7 680.4 507.3 680.4C469.9 680.4 433.5 673 399.7 658.7C367 644.9 337.3 624.9 311.8 599.4C286.3 573.9 266.3 544.2 252.5 511.6C238.2 477.8 230.8 441.5 230.8 404C230.8 366.6 238.2 330.2 252.5 296.4C266.3 263.8 286.3 234.1 311.8 208.6C337.3 183.1 367 163.1 399.7 149.3C433.5 135 469.9 127.6 507.3 127.6C544.7 127.6 581.1 135 614.9 149.3C635.3 157.9 654.4 169.2 672.2 182.5C638.2 165.1 599.8 155.1 558.9 155.1C428.2 155.1 321.2 255.8 310.9 383.8ZM782.7 426.5C777.6 478 755.1 525.8 718 562.9C675.5 605.3 619.1 628.7 559 628.7C508.6 628.7 460.9 612.1 421.7 581.7C447.7 594.3 476.8 601.6 507.7 601.6C616.9 601.6 705.4 513.1 705.4 404C705.4 294.9 616.9 206.4 507.7 206.4C476.8 206.4 447.7 213.7 421.7 226.3C460.9 195.9 508.6 179.3 559 179.3C619.1 179.3 675.5 202.7 718 245.1C755.1 282.2 777.7 330 782.7 381.5C783.3 389 783.8 396.4 783.8 404C783.8 411.6 783.3 419 782.7 426.5ZM507.3 103.5C341.2 103.5 206.6 238 206.6 404C206.6 570 341.2 704.5 507.3 704.5C557.9 704.5 605.6 691.9 647.4 669.8C627.4 684.2 606.1 696.6 583.4 706.2C543.1 723.2 500 731.9 455.7 731.9C411.3 731.9 368.3 723.2 328 706.2C289.1 689.7 253.9 666.1 223.7 635.9C193.5 605.7 169.8 570.6 153.3 531.7C136.3 491.4 127.5 448.4 127.5 404.1C127.5 359.8 136.2 316.7 153.3 276.5C169.8 237.6 193.4 202.5 223.7 172.3C253.9 142.1 289.1 118.4 328 102C368.3 85 411.4 76.3 455.7 76.3C500.1 76.3 543.1 85 583.4 102C606.2 111.6 627.5 124 647.4 138.4C605.6 116.2 557.9 103.5 507.3 103.5ZM404 783.5C352.7 783.5 303 773.5 256.2 753.7C211 734.6 170.4 707.2 135.5 672.4C100.6 637.5 73.2 596.9 54.1 551.8C34.2 504.9 24.2 455.2 24.2 404C24.2 352.8 34.2 303.1 54 256.3C73.1 211.1 100.5 170.5 135.4 135.7C170.3 100.8 210.9 73.5001 256.1 54.4001C303 34.5001 352.7 24.5 404 24.5C455.3 24.5 505 34.5 551.8 54.3C576.9 64.9 600.4 78.3 622.5 93.9C572.8 67.1 516 51.9001 455.6 51.9001C261 51.9001 103.2 209.5 103.2 404C103.2 598.5 261 756.1 455.6 756.1C516 756.1 572.8 740.9 622.5 714.2C600.4 729.8 576.9 743.2 551.8 753.8C505 773.5 455.3 783.5 404 783.5Z" fill="white" fill-opacity="0.23"/>
</svg>
