<svg width="33" height="32" viewBox="0 0 33 32" fill="none" xmlns="http://www.w3.org/2000/svg">
<g opacity="0.7">
<g opacity="0.7">
<path d="M30.7 8.2C29.2 5.7 27.2 3.7 24.7 2.2C22.2 0.7 19.5 0 16.5 0C13.5 0 10.8 0.7 8.29998 2.2C5.79998 3.7 3.79998 5.7 2.29998 8.2C0.799976 10.7 0.0999756 13.5 0.0999756 16.4C0.0999756 20 1.09998 23.2 3.19998 26C5.29998 28.9 7.99998 30.8 11.3 31.9C11.7 32 12 31.9 12.2 31.8C12.4 31.6 12.5 31.4 12.5 31.2V30V28.1L12 28.2C11.7 28.3 11.3 28.3 10.8 28.3H10.8C10.55 28.3 10.3 28.275 10.05 28.25C9.79998 28.225 9.54998 28.2 9.29998 28.2C8.79998 28.1 8.29998 27.9 7.89998 27.6C7.49998 27.3 7.09998 26.8 6.99998 26.3L6.79998 25.8C6.64998 25.6 6.52498 25.4 6.39998 25.2C6.27498 25 6.14998 24.8 5.99998 24.6C5.69998 24.2 5.39998 23.9 5.09998 23.8L4.99998 23.7L4.69998 23.4C4.64998 23.35 4.62498 23.3 4.59998 23.25C4.57498 23.2 4.54998 23.15 4.49998 23.1C4.49998 23 4.49998 22.9 4.59998 22.9C4.63658 22.9 4.68658 22.8866 4.74998 22.8696C4.85978 22.8402 5.00978 22.8 5.19998 22.8L5.59998 22.9C5.89998 23 6.19998 23.1 6.69998 23.4C7.09998 23.7 7.49998 24.1 7.69998 24.5C7.99998 25.1 8.39997 25.5 8.89997 25.8C9.39997 26.1 9.79998 26.3 10.3 26.3H10.3C10.8 26.3 11.2 26.3 11.5 26.2C11.65 26.15 11.825 26.1 12 26.05C12.175 26 12.35 25.95 12.5 25.9C12.6 24.9 13 24.2 13.5 23.7C12.7 23.6 12 23.5 11.3 23.3C11.2159 23.272 11.1299 23.244 11.0423 23.2154C10.5039 23.0401 9.90193 22.844 9.29998 22.5C9.24548 22.4611 9.19158 22.4227 9.13834 22.3849C8.50776 21.9365 7.96883 21.5533 7.59998 21C7.09998 20.4 6.79998 19.7 6.49998 18.8C6.19998 17.9 6.09998 16.8 6.09998 15.6C6.09998 13.9 6.69998 12.4 7.79998 11.2C7.19998 9.9 7.19998 8.4 7.89998 6.8C8.29998 6.7 8.89997 6.8 9.69998 7.1C10.5 7.4 11.1 7.7 11.5 7.9C11.9 8.1 12.2 8.3 12.4 8.5C13.7 8.1 15.1 7.9 16.5 7.9C17.9 7.9 19.3 8.1 20.6 8.5L21.4 8C21.547 7.9265 21.694 7.847 21.8439 7.76591C22.306 7.51601 22.796 7.251 23.4 7.1C24.2 6.8 24.7 6.7 25.1 6.9C25.7 8.5 25.8 10 25.3 11.3C26.4 12.5 27 14 27 15.7C27 16.9 26.9 18 26.6 18.9C26.3 19.8 25.9 20.6 25.5 21.1C25 21.7 24.5 22.1 23.8 22.5C23.1 22.9 22.4 23.2 21.8 23.3C21.2 23.5 20.4 23.6 19.6 23.7C20.3 24.3 20.7 25.4 20.7 26.7V31.2C20.7 31.5 20.8 31.7 21 31.8C21 32 21.3 32 21.7 32C25 30.9 27.7 28.9 29.8 26.1C31.9 23.2 32.9 20 32.9 16.5C32.9 13.4 32.2 10.7 30.7 8.2Z" fill="white"/>
<path d="M30.7 8.2C29.2 5.7 27.2 3.7 24.7 2.2C22.2 0.7 19.5 0 16.5 0C13.5 0 10.8 0.7 8.29998 2.2C5.79998 3.7 3.79998 5.7 2.29998 8.2C0.799976 10.7 0.0999756 13.5 0.0999756 16.4C0.0999756 20 1.09998 23.2 3.19998 26C5.29998 28.9 7.99998 30.8 11.3 31.9C11.7 32 12 31.9 12.2 31.8C12.4 31.6 12.5 31.4 12.5 31.2V30V28.1L12 28.2C11.7 28.3 11.3 28.3 10.8 28.3H10.8C10.55 28.3 10.3 28.275 10.05 28.25C9.79998 28.225 9.54998 28.2 9.29998 28.2C8.79998 28.1 8.29998 27.9 7.89998 27.6C7.49998 27.3 7.09998 26.8 6.99998 26.3L6.79998 25.8C6.64998 25.6 6.52498 25.4 6.39998 25.2C6.27498 25 6.14998 24.8 5.99998 24.6C5.69998 24.2 5.39998 23.9 5.09998 23.8L4.99998 23.7L4.69998 23.4C4.64998 23.35 4.62498 23.3 4.59998 23.25C4.57498 23.2 4.54998 23.15 4.49998 23.1C4.49998 23 4.49998 22.9 4.59998 22.9C4.63658 22.9 4.68658 22.8866 4.74998 22.8696C4.85978 22.8402 5.00978 22.8 5.19998 22.8L5.59998 22.9C5.89998 23 6.19998 23.1 6.69998 23.4C7.09998 23.7 7.49998 24.1 7.69998 24.5C7.99998 25.1 8.39997 25.5 8.89997 25.8C9.39997 26.1 9.79998 26.3 10.3 26.3H10.3C10.8 26.3 11.2 26.3 11.5 26.2C11.65 26.15 11.825 26.1 12 26.05C12.175 26 12.35 25.95 12.5 25.9C12.6 24.9 13 24.2 13.5 23.7C12.7 23.6 12 23.5 11.3 23.3C11.2159 23.272 11.1299 23.244 11.0423 23.2154C10.5039 23.0401 9.90193 22.844 9.29998 22.5C9.24548 22.4611 9.19158 22.4227 9.13834 22.3849C8.50776 21.9365 7.96883 21.5533 7.59998 21C7.09998 20.4 6.79998 19.7 6.49998 18.8C6.19998 17.9 6.09998 16.8 6.09998 15.6C6.09998 13.9 6.69998 12.4 7.79998 11.2C7.19998 9.9 7.19998 8.4 7.89998 6.8C8.29998 6.7 8.89997 6.8 9.69998 7.1C10.5 7.4 11.1 7.7 11.5 7.9C11.9 8.1 12.2 8.3 12.4 8.5C13.7 8.1 15.1 7.9 16.5 7.9C17.9 7.9 19.3 8.1 20.6 8.5L21.4 8C21.547 7.9265 21.694 7.847 21.8439 7.76591C22.306 7.51601 22.796 7.251 23.4 7.1C24.2 6.8 24.7 6.7 25.1 6.9C25.7 8.5 25.8 10 25.3 11.3C26.4 12.5 27 14 27 15.7C27 16.9 26.9 18 26.6 18.9C26.3 19.8 25.9 20.6 25.5 21.1C25 21.7 24.5 22.1 23.8 22.5C23.1 22.9 22.4 23.2 21.8 23.3C21.2 23.5 20.4 23.6 19.6 23.7C20.3 24.3 20.7 25.4 20.7 26.7V31.2C20.7 31.5 20.8 31.7 21 31.8C21 32 21.3 32 21.7 32C25 30.9 27.7 28.9 29.8 26.1C31.9 23.2 32.9 20 32.9 16.5C32.9 13.4 32.2 10.7 30.7 8.2Z" stroke="white"/>
</g>
</g>
</svg>
