<svg width="176" height="27" viewBox="0 0 176 27" fill="none" xmlns="http://www.w3.org/2000/svg">
<path d="M22.1 6H0.0999756V21H22.1V6Z" fill="#3E4B4D"/>
<path d="M57.1 13.3C56.9 13 56.5 12.7 56.2 12.5C55.8 12.3 55.4 12.1 54.8 12C55.3 11.7 55.8 11.2 56 10.8C56.3 10.3 56.4 9.69995 56.4 8.99995C56.4 7.79995 56 6.79995 55.3 6.19995C54.6 5.49995 53.6 5.19995 52.2 5.19995H46.5V19.9H52.6C53.4 19.9 54.1 19.8 54.7 19.6C55.3 19.4 55.9 19.1 56.3 18.8C56.7 18.4 57.1 18 57.3 17.5C57.5 17 57.7 16.4 57.7 15.7C57.7 15.3 57.6 14.8 57.5 14.4C57.4 14 57.3 13.6 57.1 13.3ZM50.4 8.09995H51.1C52.3 8.09995 52.9 8.59995 52.9 9.49995C52.9 10.5 52.3 10.9 51.1 10.9H50.4V8.09995ZM53.3 16.5C52.9 16.7 52.2 16.9 51.2 16.9H50.4V13.8H51.2C52.2 13.8 52.9 13.9 53.3 14.2C53.7 14.4 53.9 14.8 53.9 15.4C53.9 16 53.7 16.3 53.3 16.5Z" fill="#3E4B4D"/>
<path d="M80.9 12.4C81.4 11.7 81.7 10.8 81.7 9.69998C81.7 9.09998 81.6 8.49998 81.4 7.89998C81.2 7.39998 80.9 6.89998 80.5 6.49998C80.1 6.09998 79.6 5.79998 79 5.49998C78.4 5.29998 77.7 5.09998 76.9 5.09998H70.9V19.8H74.7V14.1L78.4 19.8H83.2L78.6 13.8C79.6 13.6 80.4 13.1 80.9 12.4ZM77.2 11.2C76.8 11.5 76.2 11.7 75.5 11.7H74.8V8.09998H75.5C76.3 8.09998 76.8 8.29998 77.2 8.59998C77.6 8.89998 77.8 9.39998 77.8 9.89998C77.8 10.4 77.6 10.9 77.2 11.2Z" fill="#3E4B4D"/>
<path d="M99.4 5.09998H95.6V19.8H99.4V5.09998Z" fill="#3E4B4D"/>
<path d="M124.1 7.39995C123.4 6.69995 122.7 6.19995 121.8 5.79995C120.9 5.39995 120 5.19995 119 5.19995H113.3V19.9H119C120 19.9 121 19.7 121.8 19.3C122.7 18.9 123.4 18.4 124.1 17.7C124.8 17 125.3 16.2 125.6 15.3C126 14.4 126.2 13.5 126.2 12.5C126.2 11.5 126 10.6 125.6 9.69995C125.3 8.79995 124.8 7.99995 124.1 7.39995ZM121.9 14.1C121.7 14.6 121.4 15 121.1 15.4C120.8 15.8 120.3 16.1 119.8 16.3C119.3 16.5 118.7 16.6 118 16.6H117.1V8.39995H118C118.7 8.39995 119.2 8.49995 119.8 8.69995C120.4 8.89995 120.8 9.19995 121.1 9.59995C121.5 9.99995 121.7 10.4 121.9 10.9C122.1 11.4 122.2 12 122.2 12.5C122.2 13.1 122.1 13.6 121.9 14.1Z" fill="#3E4B4D"/>
<path d="M146.7 14.6H149.8C149.7 15 149.6 15.4 149.4 15.7C149.2 16 149 16.2 148.7 16.4C148.4 16.6 148.1 16.7 147.8 16.8C147.4 16.9 147.1 16.9 146.7 16.9C146.1 16.9 145.5 16.8 145 16.6C144.5 16.4 144.1 16.1 143.8 15.7C143.5 15.3 143.2 14.8 143.1 14.3C142.9 13.8 142.9 13.2 142.9 12.6C142.9 11.9 143 11.3 143.2 10.7C143.4 10.1 143.6 9.69995 144 9.29995C144.3 8.89995 144.7 8.59995 145.2 8.39995C145.7 8.19995 146.2 8.09995 146.8 8.09995C147.5 8.09995 148.1 8.29995 148.6 8.59995C149.1 8.89995 149.6 9.49995 149.9 10.3L153.5 8.79995C152.8 7.39995 151.9 6.39995 150.7 5.69995C149.5 4.99995 148.2 4.69995 146.7 4.69995C145.5 4.69995 144.4 4.89995 143.5 5.29995C142.5 5.69995 141.7 6.19995 141 6.89995C140.3 7.59995 139.8 8.39995 139.4 9.39995C139 10.4 138.8 11.4 138.8 12.6C138.8 13.8 139 14.8 139.4 15.8C139.8 16.8 140.3 17.6 141 18.3C141.7 19 142.5 19.5 143.4 19.9C144.3 20.3 145.4 20.5 146.5 20.5C147.3 20.5 148.1 20.4 148.9 20.2C149.7 20 150.3 19.7 151 19.3C151.6 18.9 152.2 18.4 152.6 17.8C153.1 17.2 153.4 16.5 153.7 15.8C153.9 15.3 154 14.7 154.1 14C154.2 13.4 154.2 12.7 154.2 11.9H146.6V14.6H146.7Z" fill="#3E4B4D"/>
<path d="M175.9 8.39998V5.09998H167.5V19.9H175.9V16.6H171.3V14.1H175.6V10.8H171.3V8.39998H175.9Z" fill="#3E4B4D"/>
<path d="M14.7 10.4C14.7 9.6 14.1 9 13.3 9H0.0999756V11.8H13.3C14.1 11.8 14.7 11.2 14.7 10.4Z" fill="url(#paint0_radial)"/>
<path d="M20.1 0H7.09995C3.49995 0 0.599951 2.7 0.199951 6.2H14.2C16.7 6.2 18.7 8.2 18.7 10.7C18.7 11.6 18.4 12.4 18 13.1C19.1 13.9 19.7999 15.1 19.7999 16.6C19.7999 18.9 17.9 20.8 15.6 20.8H0.199951C0.599951 24.3 3.49995 27 7.09995 27H20.1C23.9 27 27.1 23.8 27.1 20V7C27.1 3.1 24 0 20.1 0Z" fill="url(#paint1_radial)"/>
<path d="M15.9 16.6C15.9 15.8 15.3 15.2 14.5 15.2H0.0999756V18H14.4C15.2 18 15.9 17.4 15.9 16.6Z" fill="url(#paint2_radial)"/>
<defs>
<radialGradient id="paint0_radial" cx="0" cy="0" r="1" gradientUnits="userSpaceOnUse" gradientTransform="translate(7.42628 10.4063) scale(5.2655)">
<stop stop-color="#63D2AC"/>
<stop offset="1" stop-color="#63D2AC"/>
</radialGradient>
<radialGradient id="paint1_radial" cx="0" cy="0" r="1" gradientUnits="userSpaceOnUse" gradientTransform="translate(13.6396 13.5) scale(13.4871)">
<stop stop-color="#63D2AC"/>
<stop offset="1" stop-color="#63D2AC"/>
</radialGradient>
<radialGradient id="paint2_radial" cx="0" cy="0" r="1" gradientUnits="userSpaceOnUse" gradientTransform="translate(7.98878 16.5938) scale(5.6566)">
<stop stop-color="#63D2AC"/>
<stop offset="1" stop-color="#63D2AC"/>
</radialGradient>
</defs>
</svg>
