<svg width="340" height="236" viewBox="0 0 340 236" fill="none" xmlns="http://www.w3.org/2000/svg">
<path fill-rule="evenodd" clip-rule="evenodd" d="M253.1 152.7L246 159.8L240.9 154.7L243.1 152.6L246 155.5L250.9 150.6L253.1 152.7Z" fill="white"/>
<path d="M253.1 152.7L246 159.8L240.9 154.7L243.1 152.6L246 155.5L250.9 150.6L253.1 152.7Z" fill="#16D6AA"/>
<path fill-rule="evenodd" clip-rule="evenodd" d="M217.1 154.6L219.1 156.6L216.9 158.7L215 156.8L213.1 158.7L210.9 156.6L212.9 154.6L210.9 152.7L213.1 150.6L215 152.5L216.9 150.6L219.1 152.7L217.1 154.6Z" fill="white"/>
<path d="M32 214.9H308C314.6 214.9 320 209.5 320 202.9V12.1C320 5.49998 314.6 0.0999756 308 0.0999756H32C25.4 0.0999756 20 5.49998 20 12.1V203C20 209.6 25.4 214.9 32 214.9ZM30 16.1C30 12.8 32.7 10.1 36 10.1H304C307.3 10.1 310 12.8 310 16.1V199C310 202.3 307.3 205 304 205H36C32.7 205 30 202.3 30 199V16.1Z" fill="#BDC4CE"/>
<path d="M40 124C40.8 124 41.5 123.3 41.5 122.5V38.1H96C96.8 38.1 97.5 37.4 97.5 36.6C97.5 35.8 96.8 35.1 96 35.1H41.5V24.4C41.5 22.6 43.6 21.1 46 21.1H294C296.4 21.1 298.5 22.6 298.5 24.4V35.1H119C118.2 35.1 117.5 35.8 117.5 36.6C117.5 37.4 118.2 38.1 119 38.1H298.5V62.6C298.5 63.4 299.2 64.1 300 64.1C300.8 64.1 301.5 63.4 301.5 62.6V24.4C301.5 20.9 298.1 18.1 294 18.1H46C41.9 18.1 38.5 20.9 38.5 24.4V122.5C38.5 123.3 39.2 124 40 124Z" fill="#BDC4CE"/>
<path d="M46 195.9H294C298.1 195.9 301.5 192.5 301.5 188.4V92.5C301.5 91.7 300.8 91 300 91C299.2 91 298.5 91.7 298.5 92.5V188.4C298.5 190.9 296.5 192.9 294 192.9H46C43.5 192.9 41.5 190.9 41.5 188.4V152.4C41.5 151.6 40.8 150.9 40 150.9C39.2 150.9 38.5 151.6 38.5 152.4V188.4C38.5 192.6 41.9 195.9 46 195.9Z" fill="#BDC4CE"/>
<path d="M54 30.1C55.1046 30.1 56 29.2045 56 28.1C56 26.9954 55.1046 26.1 54 26.1C52.8954 26.1 52 26.9954 52 28.1C52 29.2045 52.8954 30.1 54 30.1Z" fill="#BDC4CE"/>
<path d="M62.5 30.1C63.6046 30.1 64.5 29.2045 64.5 28.1C64.5 26.9954 63.6046 26.1 62.5 26.1C61.3954 26.1 60.5 26.9954 60.5 28.1C60.5 29.2045 61.3954 30.1 62.5 30.1Z" fill="#BDC4CE"/>
<path d="M71 30.1C72.1046 30.1 73 29.2045 73 28.1C73 26.9954 72.1046 26.1 71 26.1C69.8954 26.1 69 26.9954 69 28.1C69 29.2045 69.8954 30.1 71 30.1Z" fill="#BDC4CE"/>
<path d="M214 217.9V221.9H126V217.9H0C0 222.9 2 227.4 5.3 230.6C8.6 233.9 13.1 235.9 18 235.9H322C331.9 235.9 340 227.8 340 217.9H214Z" fill="#BDC4CE"/>
<path d="M217.1 154.6L219.1 156.6L216.9 158.7L215 156.8L213.1 158.7L210.9 156.6L212.9 154.6L210.9 152.7L213.1 150.6L215 152.5L216.9 150.6L219.1 152.7L217.1 154.6Z" fill="#BDC4CE"/>
<path d="M280 131.8C280 133 279 134 277.8 134H181.2C180 134 179 133 179 131.8V116.2C179 115 180 114 181.2 114H277.8C279 114 280 115 280 116.2V131.8ZM219.1 152.7L217 150.6L215.1 152.5L213.2 150.6L211.1 152.7L213 154.6L211.1 156.5L213.2 158.6L215.1 156.7L217 158.6L219.1 156.5L217.2 154.6L219.1 152.7ZM219.1 152.7L217 150.6L215.1 152.5L213.2 150.6L211.1 152.7L213 154.6L211.1 156.5L213.2 158.6L215.1 156.7L217 158.6L219.1 156.5L217.2 154.6L219.1 152.7ZM280.5 42.1H174C171.8 42.1 170 43.9 170 46.1V177.1C170 179.8 171.2 182 172.6 182H287.5C288.9 182 290.1 179.8 290.1 177.1V31.1L280.5 42.1ZM215 164.6C209.5 164.6 205 160.1 205 154.6C205 149.1 209.5 144.6 215 144.6C220.5 144.6 225 149.1 225 154.6C225 160.2 220.5 164.6 215 164.6ZM247 164.6C241.5 164.6 237 160.1 237 154.6C237 149.1 241.5 144.6 247 144.6C252.5 144.6 257 149.1 257 154.6C257 160.2 252.5 164.6 247 164.6ZM246 155.5L243.1 152.6L241 154.7L246.1 159.8L253.2 152.7L251.1 150.6L246 155.5ZM216.9 150.6L215 152.5L213.1 150.6L211 152.7L212.9 154.6L211 156.5L213.1 158.6L215 156.7L216.9 158.6L219 156.5L217.1 154.6L219 152.7L216.9 150.6Z" fill="#16D6AA"/>
<path d="M193.8 124H193L193.1 122.8H195.6L195.7 121.6H191.7L191.5 124.4V125.2H193.5C193.9 125.2 194.1 125.3 194.3 125.4C194.5 125.5 194.5 125.7 194.5 126C194.5 126.3 194.4 126.5 194.2 126.6C194 126.7 193.7 126.8 193.3 126.8C193 126.8 192.8 126.8 192.4 126.7C192.1 126.6 191.8 126.6 191.6 126.5V127.8C191.8 127.9 192.1 128 192.5 128C192.9 128 193.2 128.1 193.5 128.1C194.4 128.1 195 127.9 195.4 127.5C195.8 127.1 196.1 126.6 196.1 126C196.1 125.3 195.9 124.8 195.5 124.5C195.1 124.2 194.6 124 193.8 124Z" fill="#35454A"/>
<path d="M200.9 128H205.6V126.8H202.5V125.4H205.3V124.1H202.5V122.8H205.6V121.6H200.9V128Z" fill="#35454A"/>
<path d="M208 126.3C207.7 126 207.5 125.5 207.5 124.9C207.5 124.2 207.7 123.7 208 123.4C208.3 123.1 208.8 122.9 209.5 122.9C210.1 122.9 210.8 123 211.3 123.3V121.9C211 121.8 210.7 121.7 210.4 121.7C210.1 121.6 209.7 121.6 209.4 121.6C208.3 121.6 207.4 121.9 206.8 122.5C206.2 123.1 205.9 123.9 205.9 125C205.9 126 206.2 126.8 206.8 127.4C207.4 128 208.3 128.3 209.4 128.3C210.1 128.3 210.8 128.2 211.4 128V126.6C210.8 126.8 210.2 126.9 209.6 126.9C208.8 126.7 208.3 126.6 208 126.3Z" fill="#35454A"/>
<path d="M216.5 124.1H214V121.6H212.4V128H214V125.4H216.5V128H218.1V121.6H216.5V124.1Z" fill="#35454A"/>
<path d="M222.4 121.5C221.3 121.5 220.5 121.8 220 122.3C219.5 122.8 219.2 123.7 219.2 124.8C219.2 125.9 219.5 126.7 220 127.3C220.5 127.8 221.3 128.1 222.4 128.1C223.5 128.1 224.3 127.8 224.8 127.3C225.3 126.8 225.6 125.9 225.6 124.8C225.6 123.6 225.3 122.8 224.8 122.3C224.3 121.7 223.5 121.5 222.4 121.5ZM223.6 126.3C223.3 126.6 223 126.8 222.4 126.8C221.9 126.8 221.5 126.6 221.2 126.3C220.9 126 220.8 125.5 220.8 124.8C220.8 124.1 220.9 123.6 221.2 123.3C221.4 123 221.8 122.8 222.4 122.8C222.9 122.8 223.3 123 223.6 123.3C223.9 123.6 224 124.1 224 124.8C224 125.5 223.8 125.9 223.6 126.3Z" fill="#35454A"/>
<path d="M232.4 126.8C232.3 126.7 232.2 126.6 232.2 126.3V124.5H233.3L233.4 123.3H232.3V121.9L230.7 122.3V123.3H230V124.5H230.6V126.4C230.6 126.9 230.7 127.4 231 127.6C231.3 127.8 231.7 128 232.3 128C232.8 128 233.2 127.9 233.5 127.8V126.7C233.3 126.8 233.1 126.8 232.9 126.8C232.7 126.9 232.5 126.9 232.4 126.8Z" fill="#35454A"/>
<path d="M236.6 123.2C235.7 123.2 235 123.4 234.6 123.8C234.2 124.2 233.9 124.8 233.9 125.6C233.9 127.2 234.8 128.1 236.6 128.1C238.4 128.1 239.3 127.3 239.3 125.6C239.3 124.8 239.1 124.2 238.6 123.8C238.1 123.4 237.5 123.2 236.6 123.2ZM237.4 126.6C237.2 126.8 237 126.9 236.6 126.9C236.2 126.9 236 126.8 235.8 126.6C235.6 126.4 235.6 126.1 235.6 125.7C235.6 125.3 235.7 125 235.8 124.8C236 124.6 236.2 124.5 236.6 124.5C237 124.5 237.2 124.6 237.4 124.8C237.6 125 237.6 125.3 237.6 125.7C237.6 126.1 237.6 126.4 237.4 126.6Z" fill="#35454A"/>
<path d="M247.5 123.5C247.1 123.3 246.7 123.2 246.3 123.2C245.9 123.2 245.4 123.3 245.1 123.5C244.8 123.7 244.5 124 244.3 124.4C244.1 124.8 244 125.3 244 125.8C244 126.6 244.2 127.2 244.6 127.6C245 128 245.5 128.1 246.2 128.1C246.5 128.1 246.8 128.1 247 128C247.2 127.9 247.5 127.8 247.7 127.6L247.8 128H249.2V121.3H247.6V123.5H247.5ZM247.5 126.6C247.3 126.8 247 127 246.6 127C246.2 127 246 126.9 245.8 126.8C245.6 126.6 245.6 126.3 245.6 125.9C245.6 125.4 245.7 125.1 245.9 124.8C246.1 124.5 246.3 124.4 246.7 124.4C247.1 124.4 247.3 124.5 247.6 124.7V126.6H247.5Z" fill="#35454A"/>
<path d="M252.6 121.6L250.1 128H251.8L252.4 126.5H254.6L255.2 128H256.9L254.4 121.6H252.6ZM252.6 125.3L253.4 123.1L254.3 125.3H252.6Z" fill="#35454A"/>
<path d="M260.9 123.2C260.3 123.2 259.8 123.4 259.4 123.7L259.3 123.3H257.9V130.2H259.5V127.8C259.9 128 260.3 128.1 260.8 128.1C261.5 128.1 262.1 127.9 262.5 127.4C262.9 127 263.1 126.3 263.1 125.5C263.1 123.9 262.3 123.2 260.9 123.2ZM261.1 126.6C260.9 126.8 260.7 127 260.3 127C260.1 127 260 127 259.8 126.9C259.6 126.8 259.5 126.8 259.4 126.7V124.8C259.7 124.6 260 124.4 260.3 124.4C260.7 124.4 260.9 124.5 261.1 124.7C261.3 124.9 261.3 125.2 261.3 125.6C261.4 126 261.3 126.3 261.1 126.6Z" fill="#35454A"/>
<path d="M267.1 123.2C266.5 123.2 266 123.4 265.6 123.7L265.5 123.3H264.1V130.2H265.7V127.8C266.1 128 266.5 128.1 267 128.1C267.7 128.1 268.3 127.9 268.7 127.4C269.1 127 269.3 126.3 269.3 125.5C269.3 123.9 268.6 123.2 267.1 123.2ZM267.4 126.6C267.2 126.8 267 127 266.6 127C266.4 127 266.3 127 266.1 126.9C265.9 126.8 265.8 126.8 265.7 126.7V124.8C266 124.6 266.3 124.4 266.6 124.4C267 124.4 267.2 124.5 267.4 124.7C267.6 124.9 267.6 125.2 267.6 125.6C267.6 126 267.6 126.3 267.4 126.6Z" fill="#35454A"/>
<path d="M208.3 80.9H206.8V88H208.3V80.9Z" fill="#35454A"/>
<path d="M211.3 84.3C211.5 84.1 211.7 84 211.9 83.9C212.1 83.8 212.4 83.8 212.6 83.8C213 83.8 213.2 83.9 213.4 84C213.6 84.1 213.6 84.4 213.6 84.8V88H215.1V84.7C215.1 84 214.9 83.5 214.6 83.2C214.3 82.9 213.8 82.7 213.1 82.7C212.8 82.7 212.4 82.8 212.1 82.9C211.8 83 211.5 83.2 211.3 83.3L211.2 82.8H209.8V88H211.3V84.3V84.3Z" fill="#35454A"/>
<path d="M219.2 88.1C219.9 88.1 220.5 88 221 87.8V86.7C220.6 86.9 220.1 87 219.6 87C219 87 218.6 86.9 218.3 86.6C218 86.3 217.9 85.9 217.9 85.4C217.9 84.8 218 84.4 218.3 84.2C218.6 84 219 83.8 219.6 83.8C220.1 83.8 220.6 83.9 221 84.1V83C220.8 82.9 220.5 82.8 220.2 82.7C219.9 82.6 219.6 82.6 219.3 82.6C218.4 82.6 217.7 82.8 217.2 83.3C216.7 83.8 216.4 84.4 216.4 85.3C216.4 86.2 216.6 86.9 217.1 87.3C217.6 87.9 218.3 88.1 219.2 88.1Z" fill="#35454A"/>
<path d="M224.5 82.7C223.5 82.7 222.8 82.9 222.4 83.4C221.9 83.9 221.7 84.5 221.7 85.4C221.7 87.2 222.6 88.1 224.5 88.1C226.4 88.1 227.3 87.2 227.3 85.4C227.3 84.5 227.1 83.8 226.6 83.4C226.2 82.9 225.5 82.7 224.5 82.7ZM225.6 86.5C225.4 86.7 225.1 86.8 224.6 86.8C224.1 86.8 223.8 86.7 223.6 86.5C223.4 86.3 223.3 85.9 223.3 85.4C223.3 84.9 223.4 84.5 223.6 84.3C223.8 84.1 224.1 84 224.6 84C225.1 84 225.4 84.1 225.6 84.3C225.8 84.5 225.9 84.9 225.9 85.4C225.9 85.9 225.8 86.3 225.6 86.5Z" fill="#35454A"/>
<path d="M235.2 84C235.3 84.2 235.4 84.4 235.4 84.7V88H236.9V84.6C236.9 84 236.8 83.5 236.5 83.2C236.2 82.9 235.8 82.7 235.2 82.7C234.8 82.7 234.4 82.8 234.1 82.9C233.8 83 233.5 83.2 233.2 83.4C233.1 83.2 232.9 83 232.7 82.9C232.5 82.8 232.2 82.7 231.9 82.7C231.3 82.7 230.7 82.9 230.1 83.3L230 82.8H228.6V88H230.1V84.3C230.5 83.9 230.9 83.7 231.2 83.7C231.5 83.7 231.7 83.8 231.8 83.9C231.9 84.1 232 84.3 232 84.6V88H233.4V84.7C233.4 84.5 233.4 84.4 233.3 84.2C233.4 84.1 233.6 83.9 233.8 83.9C234 83.9 234.2 83.8 234.4 83.8C234.9 83.8 235.1 83.9 235.2 84Z" fill="#35454A"/>
<path d="M240.7 80.7H239.1V81.9H240.7V80.7Z" fill="#35454A"/>
<path d="M239.2 83.9V88H240.7V82.8H238.5L238.4 83.9H239.2Z" fill="#35454A"/>
<path d="M245 83.8C245.4 83.8 245.6 83.9 245.8 84C246 84.1 246 84.4 246 84.8V88H247.5V84.7C247.5 84 247.3 83.5 247 83.2C246.7 82.9 246.2 82.7 245.5 82.7C245.2 82.7 244.8 82.8 244.5 82.9C244.2 83 243.9 83.2 243.7 83.3L243.6 82.8H242.2V88H243.7V84.3C243.9 84.1 244.1 84 244.3 83.9C244.5 83.8 244.7 83.8 245 83.8Z" fill="#35454A"/>
<path d="M249.7 86.1C249.5 86.2 249.3 86.3 249.1 86.5C249 86.7 248.9 86.9 248.9 87.1C248.9 87.4 249 87.7 249.3 87.9C249.5 88.1 249.9 88.2 250.3 88.2H251.7C252 88.2 252.2 88.2 252.3 88.3C252.4 88.4 252.5 88.4 252.5 88.5C252.5 88.6 252.4 88.7 252.2 88.8C252 88.9 251.6 88.9 251.1 88.9C250.7 88.9 250.4 88.9 250 88.8C249.6 88.7 249.3 88.7 249 88.6V89.7C249.3 89.8 249.6 89.9 250 89.9C250.4 90 250.8 90 251.2 90C253 90 253.9 89.5 253.9 88.5C253.9 88.1 253.8 87.7 253.5 87.5C253.2 87.3 252.8 87.1 252.3 87.1H250.8C250.6 87.1 250.5 87.1 250.5 87C250.4 87 250.4 86.9 250.4 86.8C250.4 86.7 250.5 86.6 250.6 86.5C250.7 86.4 250.9 86.4 251.2 86.3C251.4 86.3 251.7 86.4 251.9 86.4C252.5 86.4 253 86.2 253.4 85.9C253.8 85.6 253.9 85.2 253.9 84.6C253.9 84.2 253.8 83.9 253.6 83.7H254.4V82.8H252.4C252.3 82.8 252.1 82.7 251.9 82.7C251.7 82.7 251.5 82.7 251.4 82.7C250.6 82.7 249.9 82.9 249.5 83.2C249.1 83.5 248.9 84 248.9 84.7C248.8 85.3 249.1 85.8 249.7 86.1ZM250.4 83.8C250.6 83.6 250.9 83.6 251.3 83.6C251.7 83.6 252 83.7 252.2 83.8C252.4 84 252.5 84.2 252.5 84.6C252.5 85 252.4 85.2 252.2 85.4C252 85.6 251.7 85.6 251.3 85.6C250.9 85.6 250.6 85.5 250.4 85.4C250.2 85.2 250.1 85 250.1 84.6C250.1 84.2 250.2 83.9 250.4 83.8Z" fill="#35454A"/>
<path d="M200 95.3H202.2V101.2H203.7V95.3H205.9V94.1H200V95.3Z" fill="#35454A"/>
<path d="M207.6 97.6C207.8 97.5 208.1 97.4 208.4 97.3C208.7 97.2 209.1 97.1 209.4 97.1V96C209.1 96 208.7 96.1 208.4 96.2C208.1 96.3 207.8 96.5 207.5 96.6L207.4 96.1H206V101.3H207.5V97.6H207.6Z" fill="#35454A"/>
<path d="M213.5 101.2H214.8V97.9C214.8 96.6 214 95.9 212.3 95.9C211.9 95.9 211.5 95.9 211.2 96C210.9 96.1 210.5 96.1 210.3 96.2V97.2C210.8 97 211.4 96.9 212 96.9C212.4 96.9 212.6 96.9 212.8 97C213 97.1 213.1 97.2 213.2 97.3C213.3 97.4 213.3 97.6 213.3 97.8V98H211.8C211.1 98 210.6 98.2 210.2 98.5C209.8 98.8 209.6 99.2 209.6 99.7C209.6 100.2 209.8 100.6 210.1 100.9C210.4 101.2 210.9 101.3 211.4 101.3C212.2 101.3 212.9 101.1 213.3 100.7L213.5 101.2ZM213.4 99.8C213.3 100 213.1 100.1 212.8 100.2C212.6 100.3 212.3 100.4 212 100.4C211.4 100.4 211.1 100.2 211.1 99.7C211.1 99.2 211.4 99 212 99H213.5V99.8H213.4Z" fill="#35454A"/>
<path d="M220 97.9V101.2H221.5V97.9C221.5 97.2 221.3 96.7 221 96.4C220.7 96.1 220.2 95.9 219.5 95.9C219.2 95.9 218.8 96 218.5 96.1C218.2 96.2 217.9 96.4 217.7 96.5L217.6 96H216.2V101.2H217.7V97.5C217.9 97.3 218.1 97.2 218.3 97.1C218.5 97 218.8 97 219 97C219.4 97 219.6 97.1 219.8 97.2C220 97.3 220 97.6 220 97.9Z" fill="#35454A"/>
<path d="M226.5 98.5C226.3 98.4 225.9 98.2 225.5 98.1L225.1 98C224.8 97.9 224.5 97.8 224.4 97.8C224.3 97.8 224.2 97.6 224.2 97.5C224.2 97.4 224.3 97.3 224.5 97.2C224.7 97.1 224.9 97.1 225.3 97.1C225.5 97.1 225.8 97.1 226 97.2C226.3 97.3 226.5 97.3 226.7 97.4V96.2C226.5 96.1 226.2 96.1 225.9 96C225.6 96 225.3 95.9 225 95.9C224.2 95.9 223.6 96 223.3 96.3C222.9 96.6 222.7 96.9 222.7 97.5C222.7 97.9 222.8 98.3 223.1 98.5C223.3 98.7 223.7 98.9 224.2 99.1C224.4 99.2 224.5 99.2 224.6 99.2C225 99.3 225.2 99.4 225.4 99.5C225.5 99.6 225.6 99.7 225.6 99.8C225.6 99.9 225.5 100 225.4 100.1C225.3 100.1 225 100.2 224.6 100.2C224.3 100.2 224 100.2 223.7 100.1C223.4 100 223.1 100 222.9 99.9V101.1C223.1 101.2 223.4 101.3 223.8 101.3C224.2 101.4 224.5 101.4 224.9 101.4C225.7 101.4 226.2 101.3 226.6 101C227 100.7 227.2 100.3 227.2 99.8C227.2 99.5 227.2 99.2 227.1 99C226.9 98.8 226.7 98.6 226.5 98.5Z" fill="#35454A"/>
<path d="M232 100.7L232.1 101.2H233.4V97.9C233.4 96.6 232.6 95.9 230.9 95.9C230.5 95.9 230.1 95.9 229.8 96C229.5 96.1 229.1 96.1 228.9 96.2V97.2C229.4 97 230 96.9 230.6 96.9C231 96.9 231.2 96.9 231.4 97C231.6 97.1 231.7 97.2 231.8 97.3C231.9 97.4 231.9 97.6 231.9 97.8V98H230.4C229.7 98 229.2 98.2 228.8 98.5C228.4 98.8 228.2 99.2 228.2 99.7C228.2 100.2 228.4 100.6 228.7 100.9C229 101.2 229.5 101.3 230 101.3C230.9 101.3 231.6 101.1 232 100.7ZM229.6 99.7C229.6 99.2 229.9 99 230.5 99H232V99.8C231.9 100 231.7 100.1 231.4 100.2C231.2 100.3 230.9 100.4 230.6 100.4C229.9 100.3 229.6 100.1 229.6 99.7Z" fill="#35454A"/>
<path d="M237.7 97C238.2 97 238.7 97.1 239.1 97.3V96.2C238.9 96.1 238.6 96 238.3 95.9C238 95.8 237.7 95.8 237.4 95.8C236.5 95.8 235.8 96 235.3 96.5C234.8 97 234.5 97.6 234.5 98.5C234.5 99.4 234.7 100.1 235.2 100.5C235.7 101 236.4 101.2 237.3 101.2C238 101.2 238.6 101.1 239.1 100.9V99.8C238.7 100 238.2 100.1 237.7 100.1C237.1 100.1 236.7 100 236.4 99.7C236.1 99.4 236 99 236 98.5C236 97.9 236.1 97.5 236.4 97.3C236.7 97.1 237.1 97 237.7 97Z" fill="#35454A"/>
<path d="M242.1 100C242 99.9 241.9 99.7 241.9 99.4V97.1H243.1L243.2 96H241.9V94.4L240.4 94.8V96H239.7V97.1H240.4V99.5C240.4 100.1 240.5 100.5 240.8 100.8C241.1 101.1 241.5 101.3 242.1 101.3C242.5 101.3 242.9 101.2 243.3 101.1V100.1C243.1 100.2 242.9 100.2 242.7 100.2C242.4 100.2 242.2 100.2 242.1 100Z" fill="#35454A"/>
<path d="M246.7 93.9H245.1V95.1H246.7V93.9Z" fill="#35454A"/>
<path d="M246.7 101.2V96H244.6L244.5 97.1H245.2V101.2H246.7Z" fill="#35454A"/>
<path d="M250.9 101.3C252.8 101.3 253.7 100.4 253.7 98.6C253.7 97.7 253.5 97 253 96.6C252.5 96.1 251.8 95.9 250.9 95.9C249.9 95.9 249.2 96.1 248.8 96.6C248.3 97.1 248.1 97.7 248.1 98.6C248 100.4 249 101.3 250.9 101.3ZM249.9 97.5C250.1 97.3 250.4 97.2 250.9 97.2C251.4 97.2 251.7 97.3 251.9 97.5C252.1 97.7 252.2 98.1 252.2 98.6C252.2 99.1 252.1 99.5 251.9 99.7C251.7 99.9 251.4 100 250.9 100C250.4 100 250.1 99.9 249.9 99.7C249.7 99.5 249.6 99.1 249.6 98.6C249.5 98.1 249.7 97.7 249.9 97.5Z" fill="#35454A"/>
<path d="M258.8 97.9V101.2H260.3V97.9C260.3 97.2 260.1 96.7 259.8 96.4C259.5 96.1 259 95.9 258.3 95.9C258 95.9 257.6 96 257.3 96.1C257 96.2 256.7 96.4 256.5 96.5L256.4 96H255V101.2H256.5V97.5C256.7 97.3 256.9 97.2 257.1 97.1C257.3 97 257.6 97 257.8 97C258.2 97 258.4 97.1 258.6 97.2C258.8 97.3 258.8 97.6 258.8 97.9Z" fill="#35454A"/>
<path d="M232.5 67C232.5 66.5 232 66 231.5 66H222.5V68H231.5C232 68 232.5 67.6 232.5 67Z" fill="#35454A"/>
<path d="M231.5 63C231.5 62.5 231 62 230.5 62H222.5V64H230.5C231 64 231.5 63.6 231.5 63Z" fill="#35454A"/>
<path d="M224.5 73H236.5C237.6 73 238.5 72.1 238.5 71V59C238.5 57.9 237.6 57 236.5 57H224.5C223.4 57 222.5 57.9 222.5 59V60H230.5C232.2 60 233.5 61.3 233.5 63C233.5 63.5 233.3 64 233.1 64.5C233.9 65 234.5 66 234.5 67C234.5 68.6 233.2 70 231.5 70H222.5V71C222.5 72.1 223.4 73 224.5 73Z" fill="#35454A"/>
<path d="M271.8 177.3L267 172.5L270.4 170.5C270.7 170.3 270.8 170.1 270.8 169.7C270.8 169.4 270.6 169.1 270.3 169L255.1 162.9C254.8 162.8 254.5 162.9 254.2 163.1C254 163.3 253.9 163.7 254 164L260.1 179.2C260.2 179.5 260.5 179.7 260.8 179.7C261.1 179.7 261.4 179.6 261.6 179.3L263.6 175.9L268.4 180.7C268.6 180.9 268.8 180.9 269 180.9C269.2 180.9 269.4 180.8 269.6 180.7L271.9 178.4C272.1 178.1 272.1 177.6 271.8 177.3Z" fill="black"/>
<path d="M251.5 159.4C251.2 159.1 250.7 159.1 250.4 159.4C250.1 159.7 250.1 160.2 250.4 160.5L252.2 162.3C252.4 162.5 252.6 162.5 252.8 162.5C253 162.5 253.2 162.4 253.4 162.3C253.7 162 253.7 161.5 253.4 161.2L251.5 159.4Z" fill="black"/>
<path d="M252.1 164.9C252.1 164.5 251.7 164.1 251.3 164.1H248.8C248.4 164.1 248 164.5 248 164.9C248 165.3 248.4 165.7 248.8 165.7H251.3C251.8 165.7 252.1 165.3 252.1 164.9Z" fill="black"/>
<path d="M251.8 167.4L250 169.2C249.7 169.5 249.7 170 250 170.3C250.2 170.5 250.4 170.5 250.6 170.5C250.8 170.5 251 170.4 251.2 170.3L253 168.5C253.3 168.2 253.3 167.7 253 167.4C252.6 167.1 252.1 167.1 251.8 167.4Z" fill="black"/>
<path d="M255.9 161.1C256.3 161.1 256.7 160.7 256.7 160.3V157.8C256.7 157.4 256.3 157 255.9 157C255.5 157 255.1 157.4 255.1 157.8V160.3C255.1 160.7 255.5 161.1 255.9 161.1Z" fill="black"/>
<path d="M259 162.1C259.2 162.1 259.4 162 259.6 161.9L261.4 160.1C261.7 159.8 261.7 159.3 261.4 159C261.1 158.7 260.6 158.7 260.3 159L258.5 160.8C258.2 161.1 258.2 161.6 258.5 161.9C258.6 162.1 258.8 162.1 259 162.1Z" fill="black"/>
</svg>
