<svg width="340" height="236" viewBox="0 0 340 236" fill="none" xmlns="http://www.w3.org/2000/svg">
<path d="M148.8 141.7C148.9 141.9 148.9 142.2 148.9 142.7C148.9 143.3 148.8 143.8 148.6 144C148.4 144.2 148 144.3 147.6 144.3H147.2V141.2H147.6C147.9 141.2 148.2 141.2 148.4 141.3C148.6 141.4 148.7 141.5 148.8 141.7Z" fill="#16D6AA"/>
<path d="M164.3 141.1H163.5V142.6H164.2C164.4 142.6 164.6 142.5 164.7 142.4C164.8 142.3 164.9 142.1 164.9 141.9C164.9 141.3 164.7 141.1 164.3 141.1ZM173.5 141.5C173.3 141.3 173 141.2 172.6 141.2C172.2 141.2 171.9 141.3 171.7 141.5C171.5 141.7 171.4 142.1 171.4 142.7C171.4 143.3 171.5 143.7 171.7 143.9C171.9 144.1 172.2 144.3 172.6 144.3C173 144.3 173.3 144.2 173.5 143.9C173.7 143.7 173.8 143.3 173.8 142.7C173.8 142.1 173.7 141.7 173.5 141.5ZM173.5 141.5C173.3 141.3 173 141.2 172.6 141.2C172.2 141.2 171.9 141.3 171.7 141.5C171.5 141.7 171.4 142.1 171.4 142.7C171.4 143.3 171.5 143.7 171.7 143.9C171.9 144.1 172.2 144.3 172.6 144.3C173 144.3 173.3 144.2 173.5 143.9C173.7 143.7 173.8 143.3 173.8 142.7C173.8 142.1 173.7 141.7 173.5 141.5ZM164.3 141.1H163.5V142.6H164.2C164.4 142.6 164.6 142.5 164.7 142.4C164.8 142.3 164.9 142.1 164.9 141.9C164.9 141.3 164.7 141.1 164.3 141.1ZM164.3 141.1H163.5V142.6H164.2C164.4 142.6 164.6 142.5 164.7 142.4C164.8 142.3 164.9 142.1 164.9 141.9C164.9 141.3 164.7 141.1 164.3 141.1ZM173.5 141.5C173.3 141.3 173 141.2 172.6 141.2C172.2 141.2 171.9 141.3 171.7 141.5C171.5 141.7 171.4 142.1 171.4 142.7C171.4 143.3 171.5 143.7 171.7 143.9C171.9 144.1 172.2 144.3 172.6 144.3C173 144.3 173.3 144.2 173.5 143.9C173.7 143.7 173.8 143.3 173.8 142.7C173.8 142.1 173.7 141.7 173.5 141.5ZM173.5 141.5C173.3 141.3 173 141.2 172.6 141.2C172.2 141.2 171.9 141.3 171.7 141.5C171.5 141.7 171.4 142.1 171.4 142.7C171.4 143.3 171.5 143.7 171.7 143.9C171.9 144.1 172.2 144.3 172.6 144.3C173 144.3 173.3 144.2 173.5 143.9C173.7 143.7 173.8 143.3 173.8 142.7C173.8 142.1 173.7 141.7 173.5 141.5ZM164.3 141.1H163.5V142.6H164.2C164.4 142.6 164.6 142.5 164.7 142.4C164.8 142.3 164.9 142.1 164.9 141.9C164.9 141.3 164.7 141.1 164.3 141.1ZM208.4 135.2C206.5 133.3 203.9 132.1 201 132.1H139C133.2 132.1 128.5 136.8 128.5 142.6C128.5 145.5 129.7 148.1 131.6 150C133.5 151.9 136.1 153.1 139 153.1H201C202.5 153.1 203.9 152.8 205.2 152.2C207.5 151.2 209.3 149.4 210.4 147.2C211.1 145.8 211.5 144.3 211.5 142.6C211.5 139.8 210.3 137.1 208.4 135.2ZM150.9 145.6C150.2 146.2 149.2 146.5 147.9 146.5H144.2V138.8H147.9C150.6 138.8 151.9 140.1 151.9 142.7C151.9 144 151.6 145 150.9 145.6ZM159.4 140.9H156.1V141.6H158.9V143.8H156.1V144.5H159.4V146.6H153.2V138.9H159.4V140.9ZM167.5 143.3C167.2 143.8 166.9 144.1 166.4 144.4C166 144.7 165.4 144.8 164.8 144.8H163.4V146.5H160.5V138.8H164.8C165.4 138.8 166 138.9 166.4 139.2C166.8 139.5 167.2 139.8 167.4 140.3C167.6 140.8 167.7 141.3 167.7 141.8C167.7 142.3 167.8 142.9 167.5 143.3ZM175.7 145.7C175 146.3 174 146.6 172.6 146.6C171.2 146.6 170.2 146.3 169.5 145.7C168.8 145.1 168.5 144.1 168.5 142.7C168.5 141.3 168.9 140.3 169.5 139.7C170.2 139.1 171.2 138.8 172.6 138.8C174 138.8 175 139.1 175.7 139.7C176.4 140.3 176.8 141.3 176.8 142.7C176.7 144.1 176.4 145.1 175.7 145.7ZM182.7 146C182.1 146.4 181.3 146.6 180.1 146.6C179.6 146.6 179 146.6 178.5 146.5C178 146.4 177.6 146.3 177.2 146.1V143.9C177.6 144.1 178 144.2 178.5 144.4C179 144.5 179.4 144.6 179.8 144.6C180 144.6 180.2 144.6 180.4 144.5C180.5 144.4 180.6 144.3 180.6 144.2C180.6 144.1 180.5 144 180.4 144C180.3 143.9 180.1 143.9 179.8 143.7C179.4 143.6 179.3 143.5 179.2 143.5C178.7 143.3 178.3 143.1 178 142.9C177.7 142.7 177.5 142.4 177.4 142.2C177.3 141.9 177.2 141.5 177.2 141.1C177.2 140.3 177.5 139.7 178 139.3C178.6 138.9 179.4 138.7 180.6 138.7C181 138.7 181.4 138.7 181.9 138.8C182.4 138.9 182.8 139 183.1 139.1V141.3C182.3 141 181.7 140.8 181.1 140.8C180.5 140.8 180.2 140.9 180.2 141.1C180.2 141.2 180.3 141.2 180.4 141.3C180.5 141.3 180.7 141.4 181.1 141.5L181.4 141.6C182 141.8 182.5 142 182.8 142.2C183.1 142.4 183.3 142.7 183.5 143C183.6 143.3 183.7 143.7 183.7 144.2C183.6 145 183.3 145.6 182.7 146ZM187.8 146.5H184.9V138.8H187.8V146.5ZM195.8 140.9H193.8V146.5H190.9V140.9H188.9V138.8H195.7V140.9H195.8ZM172.6 141.1C172.2 141.1 171.9 141.2 171.7 141.4C171.5 141.6 171.4 142 171.4 142.6C171.4 143.2 171.5 143.6 171.7 143.8C171.9 144 172.2 144.2 172.6 144.2C173 144.2 173.3 144.1 173.5 143.8C173.7 143.6 173.8 143.2 173.8 142.6C173.8 142 173.7 141.6 173.5 141.4C173.3 141.2 173 141.1 172.6 141.1ZM164.3 141.1H163.5V142.6H164.2C164.4 142.6 164.6 142.5 164.7 142.4C164.8 142.3 164.9 142.1 164.9 141.9C164.9 141.3 164.7 141.1 164.3 141.1ZM164.3 141.1H163.5V142.6H164.2C164.4 142.6 164.6 142.5 164.7 142.4C164.8 142.3 164.9 142.1 164.9 141.9C164.9 141.3 164.7 141.1 164.3 141.1ZM173.5 141.5C173.3 141.3 173 141.2 172.6 141.2C172.2 141.2 171.9 141.3 171.7 141.5C171.5 141.7 171.4 142.1 171.4 142.7C171.4 143.3 171.5 143.7 171.7 143.9C171.9 144.1 172.2 144.3 172.6 144.3C173 144.3 173.3 144.2 173.5 143.9C173.7 143.7 173.8 143.3 173.8 142.7C173.8 142.1 173.7 141.7 173.5 141.5ZM173.5 141.5C173.3 141.3 173 141.2 172.6 141.2C172.2 141.2 171.9 141.3 171.7 141.5C171.5 141.7 171.4 142.1 171.4 142.7C171.4 143.3 171.5 143.7 171.7 143.9C171.9 144.1 172.2 144.3 172.6 144.3C173 144.3 173.3 144.2 173.5 143.9C173.7 143.7 173.8 143.3 173.8 142.7C173.8 142.1 173.7 141.7 173.5 141.5ZM164.3 141.1H163.5V142.6H164.2C164.4 142.6 164.6 142.5 164.7 142.4C164.8 142.3 164.9 142.1 164.9 141.9C164.9 141.3 164.7 141.1 164.3 141.1ZM164.3 141.1H163.5V142.6H164.2C164.4 142.6 164.6 142.5 164.7 142.4C164.8 142.3 164.9 142.1 164.9 141.9C164.9 141.3 164.7 141.1 164.3 141.1ZM164.3 141.1H163.5V142.6H164.2C164.4 142.6 164.6 142.5 164.7 142.4C164.8 142.3 164.9 142.1 164.9 141.9C164.9 141.3 164.7 141.1 164.3 141.1Z" fill="#16D6AA"/>
<path d="M228 114H112C111.2 114 110.5 114.7 110.5 115.5C110.5 116.3 111.2 117 112 117H228C228.8 117 229.5 116.3 229.5 115.5C229.5 114.7 228.8 114 228 114Z" fill="#16D6AA"/>
<path d="M146 104H144.8L144.9 102.5H148.8L149 100.2H142.3L142 104.7V106.1H145.1C145.6 106.1 146 106.2 146.2 106.3C146.4 106.5 146.5 106.7 146.5 107.1C146.5 107.5 146.4 107.8 146.1 108C145.8 108.2 145.4 108.3 144.8 108.3C144.4 108.3 143.9 108.3 143.4 108.1C142.9 108 142.4 107.9 142 107.7V110.1C142.4 110.3 142.9 110.4 143.5 110.5C144.1 110.6 144.7 110.6 145.2 110.6C146.6 110.6 147.7 110.3 148.4 109.7C149.1 109.1 149.5 108.3 149.5 107.2C149.7 105.1 148.4 104 146 104Z" fill="#35454A"/>
<path d="M157 110.5H164.8V108.2H160V106.5H164.2V104.2H160V102.5H164.8V100.2H157V110.5Z" fill="#35454A"/>
<path d="M169.7 107.5C169.2 107.1 169 106.4 169 105.4C169 104.4 169.2 103.7 169.7 103.3C170.2 102.9 170.9 102.6 171.9 102.6C172.9 102.6 173.9 102.8 174.8 103.2V100.6C174.3 100.4 173.8 100.3 173.3 100.2C172.8 100.1 172.3 100.1 171.6 100.1C169.7 100.1 168.3 100.6 167.3 101.5C166.3 102.4 165.9 103.7 165.9 105.5C165.9 107.2 166.4 108.5 167.4 109.4C168.4 110.3 169.8 110.8 171.7 110.8C172.8 110.8 173.9 110.6 174.9 110.3V107.7C174 108.1 173 108.3 172 108.3C170.9 108.1 170.2 107.9 169.7 107.5Z" fill="#35454A"/>
<path d="M182.9 104H179.3V100.2H176.3V110.5H179.3V106.7H182.9V110.5H185.9V100.2H182.9V104Z" fill="#35454A"/>
<path d="M196.6 101.3C195.7 100.4 194.4 100 192.7 100C190.9 100 189.6 100.4 188.8 101.3C187.9 102.1 187.5 103.5 187.5 105.4C187.5 107.2 187.9 108.6 188.8 109.4C189.7 110.2 191 110.7 192.7 110.7C194.4 110.7 195.8 110.3 196.6 109.4C197.5 108.5 197.9 107.2 197.9 105.4C197.9 103.5 197.5 102.2 196.6 101.3ZM194.3 107.5C193.9 107.9 193.4 108.2 192.6 108.2C191.8 108.2 191.3 108 190.9 107.5C190.6 107.1 190.4 106.4 190.4 105.4C190.4 104.4 190.6 103.7 190.9 103.3C191.2 102.9 191.8 102.7 192.6 102.7C193.4 102.7 193.9 102.9 194.3 103.3C194.6 103.7 194.8 104.4 194.8 105.4C194.8 106.3 194.7 107 194.3 107.5Z" fill="#35454A"/>
<path d="M220.3 158.8L215.5 154L218.9 152C219.2 151.8 219.3 151.6 219.3 151.2C219.3 150.9 219.1 150.6 218.8 150.5L203.6 144.4C203.3 144.3 203 144.4 202.7 144.6C202.5 144.8 202.4 145.2 202.5 145.5L208.6 160.7C208.7 161 209 161.2 209.3 161.2C209.6 161.2 209.9 161.1 210.1 160.8L212.1 157.4L216.9 162.2C217.1 162.4 217.3 162.4 217.5 162.4C217.7 162.4 217.9 162.3 218.1 162.2L220.4 159.9C220.6 159.6 220.6 159.1 220.3 158.8Z" fill="black"/>
<path d="M200 140.9C199.7 140.6 199.2 140.6 198.9 140.9C198.6 141.2 198.6 141.7 198.9 142L200.7 143.8C200.9 144 201.1 144 201.3 144C201.5 144 201.7 143.9 201.9 143.8C202.2 143.5 202.2 143 201.9 142.7L200 140.9Z" fill="black"/>
<path d="M200.6 146.4C200.6 146 200.2 145.6 199.8 145.6H197.3C196.9 145.6 196.5 146 196.5 146.4C196.5 146.8 196.9 147.2 197.3 147.2H199.8C200.3 147.2 200.6 146.9 200.6 146.4Z" fill="black"/>
<path d="M200.3 148.9L198.5 150.7C198.2 151 198.2 151.5 198.5 151.8C198.7 152 198.9 152 199.1 152C199.3 152 199.5 151.9 199.7 151.8L201.5 150C201.8 149.7 201.8 149.2 201.5 148.9C201.1 148.6 200.6 148.6 200.3 148.9Z" fill="black"/>
<path d="M204.4 142.6C204.8 142.6 205.2 142.2 205.2 141.8V139.3C205.2 138.9 204.8 138.5 204.4 138.5C204 138.5 203.6 138.9 203.6 139.3V141.8C203.6 142.2 204 142.6 204.4 142.6Z" fill="black"/>
<path d="M207.5 143.7C207.7 143.7 207.9 143.6 208.1 143.5L209.9 141.7C210.2 141.4 210.2 140.9 209.9 140.6C209.6 140.3 209.1 140.3 208.8 140.6L207 142.4C206.7 142.7 206.7 143.2 207 143.5C207.1 143.6 207.3 143.7 207.5 143.7Z" fill="black"/>
<path d="M32 214.9H308C314.6 214.9 320 209.5 320 202.9V12.1C320 5.49998 314.6 0.0999756 308 0.0999756H32C25.4 0.0999756 20 5.49998 20 12.1V203C20 209.6 25.4 214.9 32 214.9ZM30 16.1C30 12.8 32.7 10.1 36 10.1H304C307.3 10.1 310 12.8 310 16.1V199C310 202.3 307.3 205 304 205H36C32.7 205 30 202.3 30 199V16.1Z" fill="#BDC4CE"/>
<path d="M153.2 72.8C152.5 72.8 151.8 73 151.3 73.3C150.7 73.6 150.3 74.1 150 74.7C149.7 75.3 149.5 76.1 149.5 77C149.5 78.3 149.8 79.3 150.4 79.8C151 80.4 151.9 80.7 153 80.7C153.5 80.7 153.9 80.6 154.3 80.5C154.7 80.4 155 80.2 155.4 79.9L155.5 80.5H157.7V69.7H155.1V73.2C154.6 73 154 72.8 153.2 72.8ZM155.2 78.2C154.8 78.6 154.3 78.8 153.8 78.8C153.3 78.8 152.8 78.7 152.6 78.4C152.3 78.1 152.2 77.7 152.2 77C152.2 76.3 152.3 75.7 152.6 75.3C152.9 74.9 153.3 74.7 153.8 74.7C154.4 74.7 154.8 74.9 155.2 75.2V78.2Z" fill="#BDC4CE"/>
<path d="M159.5 80.5H162.2L163.1 78.2H166.5L167.4 80.5H170.1L166.2 70.2H163.4L159.5 80.5ZM164.8 72.7L166.2 76.3H163.5L164.8 72.7Z" fill="#BDC4CE"/>
<path d="M174.2 73.6L174.1 72.9H171.9V83.9H174.5V80.1C175.1 80.4 175.7 80.6 176.5 80.6C177.6 80.6 178.5 80.3 179.2 79.6C179.8 78.9 180.2 77.9 180.2 76.5C180.2 74 179 72.7 176.7 72.7C175.7 72.8 174.9 73.1 174.2 73.6ZM177.5 76.5C177.5 77.2 177.4 77.8 177.1 78.2C176.8 78.6 176.4 78.8 175.9 78.8C175.6 78.8 175.3 78.8 175.1 78.7C174.9 78.6 174.7 78.5 174.5 78.3V75.2C174.9 74.8 175.4 74.6 175.9 74.6C176.5 74.6 176.9 74.7 177.1 75C177.4 75.3 177.5 75.8 177.5 76.5Z" fill="#BDC4CE"/>
<path d="M184.2 73.6L184.1 72.9H181.9V83.9H184.5V80.1C185.1 80.4 185.7 80.6 186.5 80.6C187.6 80.6 188.5 80.3 189.2 79.6C189.8 78.9 190.2 77.9 190.2 76.5C190.2 74 189 72.7 186.7 72.7C185.6 72.8 184.9 73.1 184.2 73.6ZM187.5 76.5C187.5 77.2 187.4 77.8 187.1 78.2C186.8 78.6 186.4 78.8 185.9 78.8C185.6 78.8 185.3 78.8 185.1 78.7C184.9 78.6 184.7 78.5 184.5 78.3V75.2C184.9 74.8 185.4 74.6 185.9 74.6C186.5 74.6 186.9 74.7 187.1 75C187.3 75.3 187.5 75.8 187.5 76.5Z" fill="#BDC4CE"/>
<path d="M40 124C40.8 124 41.5 123.3 41.5 122.5V38.1H96C96.8 38.1 97.5 37.4 97.5 36.6C97.5 35.8 96.8 35.1 96 35.1H41.5V24.4C41.5 22.6 43.6 21.1 46 21.1H294C296.4 21.1 298.5 22.6 298.5 24.4V35.1H119C118.2 35.1 117.5 35.8 117.5 36.6C117.5 37.4 118.2 38.1 119 38.1H298.5V62.6C298.5 63.4 299.2 64.1 300 64.1C300.8 64.1 301.5 63.4 301.5 62.6V24.4C301.5 20.9 298.1 18.1 294 18.1H46C41.9 18.1 38.5 20.9 38.5 24.4V122.5C38.5 123.3 39.2 124 40 124Z" fill="#BDC4CE"/>
<path d="M46 195.9H294C298.1 195.9 301.5 192.5 301.5 188.4V92.5C301.5 91.7 300.8 91 300 91C299.2 91 298.5 91.7 298.5 92.5V188.4C298.5 190.9 296.5 192.9 294 192.9H46C43.5 192.9 41.5 190.9 41.5 188.4V152.4C41.5 151.6 40.8 150.9 40 150.9C39.2 150.9 38.5 151.6 38.5 152.4V188.4C38.5 192.6 41.9 195.9 46 195.9Z" fill="#BDC4CE"/>
<path d="M54 30.1C55.1046 30.1 56 29.2045 56 28.1C56 26.9954 55.1046 26.1 54 26.1C52.8954 26.1 52 26.9954 52 28.1C52 29.2045 52.8954 30.1 54 30.1Z" fill="#BDC4CE"/>
<path d="M62.5 30.1C63.6046 30.1 64.5 29.2045 64.5 28.1C64.5 26.9954 63.6046 26.1 62.5 26.1C61.3954 26.1 60.5 26.9954 60.5 28.1C60.5 29.2045 61.3954 30.1 62.5 30.1Z" fill="#BDC4CE"/>
<path d="M71 30.1C72.1046 30.1 73 29.2045 73 28.1C73 26.9954 72.1046 26.1 71 26.1C69.8954 26.1 69 26.9954 69 28.1C69 29.2045 69.8954 30.1 71 30.1Z" fill="#BDC4CE"/>
<path d="M214 217.9V221.9H126V217.9H0C0 222.9 2 227.4 5.3 230.6C8.6 233.9 13.1 235.9 18 235.9H322C331.9 235.9 340 227.8 340 217.9H214Z" fill="#BDC4CE"/>
</svg>
