<svg width="340" height="236" viewBox="0 0 340 236" fill="none" xmlns="http://www.w3.org/2000/svg">
<path d="M141.2 155.1C140.1 156 138.7 156.5 136.7 156.5H131.2V144.9H136.7C140.7 144.9 142.7 146.9 142.7 150.8C142.8 152.7 142.3 154.1 141.2 155.1Z" fill="#BDC4CE"/>
<path d="M144.8 144.8H154.1V148H149.1V149H153.4V152.3H149.1V153.3H154.1V156.5H144.8V144.8Z" fill="#BDC4CE"/>
<path d="M155.2 69.7H157.8V80.5H155.6L155.5 79.9C155.2 80.2 154.8 80.4 154.4 80.5C154 80.6 153.6 80.7 153.1 80.7C151.9 80.7 151.1 80.4 150.5 79.8C149.9 79.2 149.6 78.3 149.6 77C149.6 76.1 149.8 75.3 150.1 74.7C150.4 74.1 150.9 73.6 151.4 73.3C152 73 152.6 72.8 153.4 72.8C154.1 72.8 154.8 73 155.4 73.3V69.7H155.2Z" fill="#BDC4CE"/>
<path d="M166.3 147.1C166.6 147.8 166.8 148.6 166.8 149.4C166.8 150.2 166.6 151 166.3 151.7C165.9 152.4 165.4 152.9 164.7 153.3C164 153.7 163.2 153.9 162.3 153.9H160.2V156.5H155.8V144.9H162.3C163.3 144.9 164.1 145.1 164.7 145.5C165.5 145.9 166 146.4 166.3 147.1Z" fill="#BDC4CE"/>
<path d="M163.1 78.2L162.2 80.5H159.5L163.4 70.2H166.2L170.1 80.5H167.5L166.5 78.2H163.1Z" fill="#BDC4CE"/>
<path d="M173.9 144.7C175.9 144.7 177.5 145.2 178.6 146.1C179.7 147 180.2 148.6 180.2 150.7C180.2 152.8 179.7 154.3 178.6 155.3C177.5 156.2 176 156.7 173.9 156.7C171.9 156.7 170.3 156.2 169.2 155.3C168.2 154.4 167.6 152.8 167.6 150.7C167.6 148.6 168.1 147 169.2 146.1C170.3 145.1 171.8 144.7 173.9 144.7Z" fill="#BDC4CE"/>
<path d="M174.4 80.1999V83.9999H171.8V72.9999H174L174.1 73.5999C174.8 73.0999 175.6 72.7999 176.5 72.7999C178.8 72.7999 180 74.0999 180 76.5999C180 77.8999 179.7 78.9999 179 79.6999C178.4 80.3999 177.5 80.6999 176.3 80.6999C175.7 80.6999 175 80.4999 174.4 80.1999Z" fill="#BDC4CE"/>
<path d="M170 99C161.2 99 154 106.2 154 115C154 123.8 161.2 131 170 131C178.8 131 186 123.8 186 115C186 106.2 178.8 99 170 99ZM168.4 121.9L160.9 114.4L163 112.3L168.3 117.6L176.8 109.1L178.9 111.2L168.4 121.9Z" fill="#BDC4CE"/>
<path d="M190.1 76.5999C190.1 77.8999 189.8 78.9999 189.1 79.6999C188.5 80.3999 187.6 80.6999 186.4 80.6999C185.6 80.6999 184.9 80.4999 184.4 80.1999V83.9999H181.8V72.9999H184L184.1 73.5999C184.8 73.0999 185.6 72.7999 186.5 72.7999C188.9 72.7999 190.1 73.9999 190.1 76.5999Z" fill="#BDC4CE"/>
<path d="M186 153C186 152.9 185.9 152.7 185.7 152.6C185.5 152.5 185.2 152.4 184.8 152.2C184.3 152 184 151.9 183.9 151.9C183.1 151.6 182.5 151.3 182.1 151C181.7 150.7 181.4 150.3 181.2 149.9C181 149.5 180.9 148.9 180.9 148.2C180.9 147 181.3 146.1 182.2 145.5C183 144.9 184.3 144.6 186 144.6C186.6 144.6 187.2 144.7 188 144.8C188.8 144.9 189.4 145.1 189.9 145.2V148.5C188.8 148 187.7 147.8 186.8 147.8C185.9 147.8 185.4 147.9 185.4 148.3C185.4 148.4 185.5 148.5 185.7 148.6C185.9 148.7 186.2 148.8 186.7 148.9L187.2 149C188.1 149.3 188.8 149.6 189.3 149.9C189.8 150.3 190.1 150.7 190.3 151.2C190.5 151.7 190.6 152.3 190.6 153C190.6 154.1 190.1 155 189.3 155.7C188.4 156.4 187.1 156.7 185.4 156.7C184.6 156.7 183.8 156.6 183 156.5C182.2 156.4 181.6 156.2 181.1 155.9V152.6C181.7 152.9 182.3 153.1 183 153.3C183.7 153.5 184.3 153.6 184.9 153.6C185.3 153.6 185.5 153.6 185.8 153.5C185.9 153.3 186 153.2 186 153Z" fill="#BDC4CE"/>
<path d="M196.9 144.8H192.5V156.4H196.9V144.8Z" fill="#BDC4CE"/>
<path d="M201.5 156.5V148H198.5V144.8H208.8V148H205.8V156.5H201.5Z" fill="#BDC4CE"/>
<path d="M141.2 155.1C140.1 156 138.7 156.5 136.7 156.5H131.2V144.9H136.7C140.7 144.9 142.7 146.9 142.7 150.8C142.8 152.7 142.3 154.1 141.2 155.1Z" fill="white"/>
<path d="M144.8 144.8H154.1V148H149.1V149H153.4V152.3H149.1V153.3H154.1V156.5H144.8V144.8Z" fill="white"/>
<path d="M155.2 69.7H157.8V80.5H155.6L155.5 79.9C155.2 80.2 154.8 80.4 154.4 80.5C154 80.6 153.6 80.7 153.1 80.7C151.9 80.7 151.1 80.4 150.5 79.8C149.9 79.2 149.6 78.3 149.6 77C149.6 76.1 149.8 75.3 150.1 74.7C150.4 74.1 150.9 73.6 151.4 73.3C152 73 152.6 72.8 153.4 72.8C154.1 72.8 154.8 73 155.4 73.3V69.7H155.2Z" fill="white"/>
<path d="M166.3 147.1C166.6 147.8 166.8 148.6 166.8 149.4C166.8 150.2 166.6 151 166.3 151.7C165.9 152.4 165.4 152.9 164.7 153.3C164 153.7 163.2 153.9 162.3 153.9H160.2V156.5H155.8V144.9H162.3C163.3 144.9 164.1 145.1 164.7 145.5C165.5 145.9 166 146.4 166.3 147.1Z" fill="white"/>
<path d="M163.1 78.2L162.2 80.5H159.5L163.4 70.2H166.2L170.1 80.5H167.5L166.5 78.2H163.1Z" fill="white"/>
<path d="M173.9 144.7C175.9 144.7 177.5 145.2 178.6 146.1C179.7 147 180.2 148.6 180.2 150.7C180.2 152.8 179.7 154.3 178.6 155.3C177.5 156.2 176 156.7 173.9 156.7C171.9 156.7 170.3 156.2 169.2 155.3C168.2 154.4 167.6 152.8 167.6 150.7C167.6 148.6 168.1 147 169.2 146.1C170.3 145.1 171.8 144.7 173.9 144.7Z" fill="white"/>
<path d="M174.4 80.1999V83.9999H171.8V72.9999H174L174.1 73.5999C174.8 73.0999 175.6 72.7999 176.5 72.7999C178.8 72.7999 180 74.0999 180 76.5999C180 77.8999 179.7 78.9999 179 79.6999C178.4 80.3999 177.5 80.6999 176.3 80.6999C175.7 80.6999 175 80.4999 174.4 80.1999Z" fill="white"/>
<path d="M170 99C161.2 99 154 106.2 154 115C154 123.8 161.2 131 170 131C178.8 131 186 123.8 186 115C186 106.2 178.8 99 170 99ZM168.4 121.9L160.9 114.4L163 112.3L168.3 117.6L176.8 109.1L178.9 111.2L168.4 121.9Z" fill="white"/>
<path d="M190.1 76.5999C190.1 77.8999 189.8 78.9999 189.1 79.6999C188.5 80.3999 187.6 80.6999 186.4 80.6999C185.6 80.6999 184.9 80.4999 184.4 80.1999V83.9999H181.8V72.9999H184L184.1 73.5999C184.8 73.0999 185.6 72.7999 186.5 72.7999C188.9 72.7999 190.1 73.9999 190.1 76.5999Z" fill="white"/>
<path d="M186 153C186 152.9 185.9 152.7 185.7 152.6C185.5 152.5 185.2 152.4 184.8 152.2C184.3 152 184 151.9 183.9 151.9C183.1 151.6 182.5 151.3 182.1 151C181.7 150.7 181.4 150.3 181.2 149.9C181 149.5 180.9 148.9 180.9 148.2C180.9 147 181.3 146.1 182.2 145.5C183 144.9 184.3 144.6 186 144.6C186.6 144.6 187.2 144.7 188 144.8C188.8 144.9 189.4 145.1 189.9 145.2V148.5C188.8 148 187.7 147.8 186.8 147.8C185.9 147.8 185.4 147.9 185.4 148.3C185.4 148.4 185.5 148.5 185.7 148.6C185.9 148.7 186.2 148.8 186.7 148.9L187.2 149C188.1 149.3 188.8 149.6 189.3 149.9C189.8 150.3 190.1 150.7 190.3 151.2C190.5 151.7 190.6 152.3 190.6 153C190.6 154.1 190.1 155 189.3 155.7C188.4 156.4 187.1 156.7 185.4 156.7C184.6 156.7 183.8 156.6 183 156.5C182.2 156.4 181.6 156.2 181.1 155.9V152.6C181.7 152.9 182.3 153.1 183 153.3C183.7 153.5 184.3 153.6 184.9 153.6C185.3 153.6 185.5 153.6 185.8 153.5C185.9 153.3 186 153.2 186 153Z" fill="white"/>
<path d="M196.9 144.8H192.5V156.4H196.9V144.8Z" fill="white"/>
<path d="M201.5 156.5V148H198.5V144.8H208.8V148H205.8V156.5H201.5Z" fill="white"/>
<path d="M136.7 144.8H131.2V156.4H136.7C138.6 156.4 140.1 155.9 141.2 155C142.2 154.1 142.8 152.6 142.8 150.7C142.8 146.8 140.8 144.8 136.7 144.8ZM137.8 152.7C137.5 153 136.9 153.2 136.2 153.2H135.6V148.5H136.2C136.7 148.5 137.1 148.5 137.4 148.7C137.7 148.8 137.9 149 138.1 149.4C138.3 149.7 138.3 150.2 138.3 150.9C138.3 151.7 138.2 152.3 137.8 152.7Z" fill="#35454A"/>
<path d="M154.1 148V144.9H144.8V156.5H154.1V153.4H149.2V152.4H153.5V149H149.2V148H154.1Z" fill="#35454A"/>
<path d="M166.3 147.1C166 146.4 165.5 145.9 164.8 145.5C164.1 145.1 163.3 144.9 162.4 144.9H155.9V156.5H160.3V153.9H162.4C163.3 153.9 164.1 153.7 164.8 153.3C165.5 152.9 166 152.4 166.4 151.7C166.8 151 166.9 150.2 166.9 149.4C166.8 148.5 166.7 147.8 166.3 147.1ZM162.1 150.2C161.9 150.4 161.6 150.5 161.3 150.5H160.2V148.3H161.3C162 148.3 162.3 148.7 162.3 149.4C162.4 149.7 162.3 150 162.1 150.2Z" fill="#35454A"/>
<path d="M178.5 146.1C177.4 145.2 175.9 144.7 173.8 144.7C171.8 144.7 170.2 145.2 169.1 146.1C168.1 147 167.5 148.6 167.5 150.7C167.5 152.8 168 154.3 169.1 155.3C170.2 156.2 171.7 156.7 173.8 156.7C175.8 156.7 177.4 156.2 178.5 155.3C179.6 154.4 180.1 152.8 180.1 150.7C180.1 148.5 179.6 147 178.5 146.1ZM175.2 152.4C174.9 152.7 174.5 152.9 173.8 152.9C173.1 152.9 172.7 152.7 172.4 152.4C172.1 152 172 151.5 172 150.6C172 149.8 172.1 149.2 172.4 148.8C172.7 148.4 173.1 148.3 173.8 148.3C174.5 148.3 174.9 148.5 175.2 148.8C175.5 149.1 175.6 149.7 175.6 150.6C175.7 151.5 175.5 152.1 175.2 152.4Z" fill="#35454A"/>
<path d="M190.2 151.2C190 150.7 189.7 150.3 189.2 149.9C188.7 149.5 188 149.2 187.1 149L186.6 148.9C186.1 148.8 185.8 148.6 185.6 148.6C185.4 148.5 185.3 148.4 185.3 148.3C185.3 148 185.8 147.8 186.7 147.8C187.6 147.8 188.6 148 189.8 148.5V145.2C189.3 145.1 188.7 144.9 187.9 144.8C187.1 144.7 186.5 144.6 185.9 144.6C184.2 144.6 182.9 144.9 182.1 145.5C181.2 146.1 180.8 147 180.8 148.2C180.8 148.9 180.9 149.4 181.1 149.9C181.3 150.3 181.6 150.7 182 151C182.4 151.3 183 151.6 183.8 151.9C183.9 151.9 184.2 152 184.7 152.2C185.2 152.4 185.5 152.5 185.6 152.6C185.8 152.7 185.9 152.8 185.9 153C185.9 153.2 185.8 153.3 185.6 153.4C185.4 153.5 185.1 153.5 184.7 153.5C184.1 153.5 183.5 153.4 182.8 153.2C182.1 153 181.4 152.8 180.9 152.5V155.8C181.4 156.1 182 156.3 182.8 156.4C183.6 156.5 184.4 156.6 185.2 156.6C186.9 156.6 188.2 156.3 189.1 155.6C190 154.9 190.4 154.1 190.4 152.9C190.5 152.3 190.4 151.7 190.2 151.2Z" fill="#35454A"/>
<path d="M192.5 144.8V156.4H196.9V144.8H192.5Z" fill="#35454A"/>
<path d="M198.5 144.8V147.9H201.5V156.4H205.9V148H208.9V144.9H198.5V144.8Z" fill="#35454A"/>
<path d="M155.2 69.7V73.2C154.6 72.9 154 72.7 153.2 72.7C152.5 72.7 151.8 72.9 151.2 73.2C150.6 73.5 150.2 74 149.9 74.6C149.6 75.2 149.4 76 149.4 76.9C149.4 78.2 149.7 79.2 150.3 79.7C150.9 80.3 151.8 80.6 152.9 80.6C153.4 80.6 153.8 80.5 154.2 80.4C154.6 80.3 154.9 80.1 155.3 79.8L155.4 80.4H157.6V69.7H155.2ZM155.2 78.2C154.8 78.6 154.3 78.8 153.8 78.8C153.2 78.8 152.8 78.7 152.6 78.4C152.3 78.1 152.2 77.7 152.2 77C152.2 76.2 152.3 75.7 152.6 75.3C152.9 74.9 153.3 74.7 153.8 74.7C154.4 74.7 154.8 74.9 155.2 75.2V78.2Z" fill="#BDC4CE"/>
<path d="M166.2 70.2H163.4L159.5 80.5H162.2L163.1 78.2H166.5L167.4 80.5H170.1L166.2 70.2ZM163.4 76.3L164.8 72.7L166.2 76.3H163.4Z" fill="#BDC4CE"/>
<path d="M176.6 72.7999C175.7 72.7999 174.9 73.0999 174.2 73.5999L174.1 72.9999H171.9V83.9999H174.5V80.1999C175.1 80.4999 175.8 80.6999 176.5 80.6999C177.6 80.6999 178.5 80.2999 179.2 79.6999C179.8 78.9999 180.2 77.9999 180.2 76.5999C180.1 73.9999 178.9 72.7999 176.6 72.7999ZM177.1 78.1999C176.8 78.5999 176.4 78.7999 175.9 78.7999C175.6 78.7999 175.4 78.7999 175.1 78.6999C174.9 78.5999 174.7 78.4999 174.5 78.2999V75.1999C174.9 74.7999 175.4 74.5999 175.9 74.5999C176.5 74.5999 176.9 74.6999 177.1 74.9999C177.4 75.2999 177.5 75.7999 177.5 76.4999C177.5 77.2999 177.3 77.7999 177.1 78.1999Z" fill="#BDC4CE"/>
<path d="M186.6 72.7999C185.7 72.7999 184.9 73.0999 184.2 73.5999L184.1 72.9999H181.9V83.9999H184.5V80.1999C185.1 80.4999 185.8 80.6999 186.5 80.6999C187.6 80.6999 188.5 80.2999 189.2 79.6999C189.8 78.9999 190.2 77.9999 190.2 76.5999C190.1 73.9999 188.9 72.7999 186.6 72.7999ZM187 78.1999C186.7 78.5999 186.3 78.7999 185.8 78.7999C185.5 78.7999 185.3 78.7999 185 78.6999C184.8 78.5999 184.6 78.4999 184.4 78.2999V75.1999C184.8 74.7999 185.3 74.5999 185.8 74.5999C186.4 74.5999 186.8 74.6999 187 74.9999C187.3 75.2999 187.4 75.7999 187.4 76.4999C187.5 77.2999 187.3 77.7999 187 78.1999Z" fill="#BDC4CE"/>
<path d="M214 217.9V221.9H126V217.9H0C0 222.9 2 227.4 5.3 230.6C8.6 233.9 13.1 235.9 18 235.9H322C331.9 235.9 340 227.8 340 217.9H214Z" fill="#BDC4CE"/>
<path d="M46 195.9H294C298.1 195.9 301.5 192.5 301.5 188.4V92.5C301.5 91.7 300.8 91 300 91C299.2 91 298.5 91.7 298.5 92.5V188.4C298.5 190.9 296.5 192.9 294 192.9H46C43.5 192.9 41.5 190.9 41.5 188.4V152.4C41.5 151.6 40.8 150.9 40 150.9C39.2 150.9 38.5 151.6 38.5 152.4V188.4C38.5 192.6 41.9 195.9 46 195.9Z" fill="#BDC4CE"/>
<path d="M32 214.9H308C314.6 214.9 320 209.5 320 202.9V12.1C320 5.49998 314.6 0.0999756 308 0.0999756H32C25.4 0.0999756 20 5.49998 20 12.1V203C20 209.6 25.4 214.9 32 214.9ZM30 16.1C30 12.8 32.7 10.1 36 10.1H304C307.3 10.1 310 12.8 310 16.1V199C310 202.3 307.3 205 304 205H36C32.7 205 30 202.3 30 199V16.1Z" fill="#BDC4CE"/>
<path d="M40 124C40.8 124 41.5 123.3 41.5 122.5V38.1H96C96.8 38.1 97.5 37.4 97.5 36.6C97.5 35.8 96.8 35.1 96 35.1H41.5V24.4C41.5 22.6 43.6 21.1 46 21.1H294C296.4 21.1 298.5 22.6 298.5 24.4V35.1H119C118.2 35.1 117.5 35.8 117.5 36.6C117.5 37.4 118.2 38.1 119 38.1H298.5V62.6C298.5 63.4 299.2 64.1 300 64.1C300.8 64.1 301.5 63.4 301.5 62.6V24.4C301.5 20.9 298.1 18.1 294 18.1H46C41.9 18.1 38.5 20.9 38.5 24.4V122.5C38.5 123.3 39.2 124 40 124Z" fill="#BDC4CE"/>
<path d="M54 30.1C55.1046 30.1 56 29.2045 56 28.1C56 26.9954 55.1046 26.1 54 26.1C52.8954 26.1 52 26.9954 52 28.1C52 29.2045 52.8954 30.1 54 30.1Z" fill="#BDC4CE"/>
<path d="M62.5 30.1C63.6046 30.1 64.5 29.2045 64.5 28.1C64.5 26.9954 63.6046 26.1 62.5 26.1C61.3954 26.1 60.5 26.9954 60.5 28.1C60.5 29.2045 61.3954 30.1 62.5 30.1Z" fill="#BDC4CE"/>
<path d="M71 30.1C72.1046 30.1 73 29.2045 73 28.1C73 26.9954 72.1046 26.1 71 26.1C69.8954 26.1 69 26.9954 69 28.1C69 29.2045 69.8954 30.1 71 30.1Z" fill="#BDC4CE"/>
<path fill-rule="evenodd" clip-rule="evenodd" d="M170 99C161.2 99 154 106.2 154 115C154 123.8 161.2 131 170 131C178.8 131 186 123.8 186 115C186 106.2 178.8 99 170 99ZM168.4 121.9L160.9 114.4L163 112.3L168.3 117.6L176.8 109.1L178.9 111.2L168.4 121.9Z" fill="#16D6AA"/>
</svg>
