<?xml version="1.0" encoding="utf-8"?>
<!-- Generator: Adobe Illustrator 23.0.3, SVG Export Plug-In . SVG Version: 6.00 Build 0)  -->
<svg version="1.1" id="Слой_1" xmlns="http://www.w3.org/2000/svg" xmlns:xlink="http://www.w3.org/1999/xlink" x="0px" y="0px"
	 viewBox="0 0 340 238" style="enable-background:new 0 0 340 238;" xml:space="preserve">
<style type="text/css">
	.st0{fill:#BDC4CE;}
	.st1{fill:#FFFFFF;}
	.st2{fill:#16D6AA;}
	.st3{fill:#35454A;}
</style>
<g>
	<g>
		<path class="st0" d="M308,215.9H32c-6.6,0-12-5.4-12-12V13.1c0-6.6,5.4-12,12-12h276c6.6,0,12,5.4,12,12v190.8
			C320,210.6,314.6,215.9,308,215.9z"/>
		<path class="st1" d="M304,205.9H36c-3.3,0-6-2.7-6-6V17.1c0-3.3,2.7-6,6-6h268c3.3,0,6,2.7,6,6v182.9
			C310,203.3,307.3,205.9,304,205.9z"/>
	</g>
	<g>
		<path class="st0" d="M294,19.1H46c-4.1,0-7.5,2.8-7.5,6.3v98.1c0,0.8,0.7,1.5,1.5,1.5s1.5-0.7,1.5-1.5V39.1H96
			c0.8,0,1.5-0.7,1.5-1.5s-0.7-1.5-1.5-1.5H41.5V25.4c0-1.8,2.1-3.3,4.5-3.3h248c2.4,0,4.5,1.5,4.5,3.3v10.7H119
			c-0.8,0-1.5,0.7-1.5,1.5s0.7,1.5,1.5,1.5h179.5v24.5c0,0.8,0.7,1.5,1.5,1.5s1.5-0.7,1.5-1.5V25.4C301.5,21.9,298.1,19.1,294,19.1z
			"/>
		<path class="st0" d="M300,92c-0.8,0-1.5,0.7-1.5,1.5v95.9c0,2.5-2,4.5-4.5,4.5H46c-2.5,0-4.5-2-4.5-4.5v-36c0-0.8-0.7-1.5-1.5-1.5
			s-1.5,0.7-1.5,1.5v36c0,4.1,3.4,7.5,7.5,7.5h248c4.1,0,7.5-3.4,7.5-7.5V93.5C301.5,92.7,300.8,92,300,92z"/>
		<circle class="st0" cx="54" cy="29.1" r="2"/>
		<circle class="st0" cx="62.5" cy="29.1" r="2"/>
		<circle class="st0" cx="71" cy="29.1" r="2"/>
	</g>
	<path class="st0" d="M340,218.9c0,9.9-8.1,18-18,18H18c-5,0-9.5-2-12.7-5.3C2,228.4,0,223.9,0,218.9h126v4h88v-4H340z"/>
	<path class="st2" d="M227.1,179.3H112.9c-1.6,0-2.9-1.3-2.9-2.9V52.2c0-1.6,1.3-2.9,2.9-2.9h114.2c1.6,0,2.9,1.3,2.9,2.9v124.2
		C230,178,228.7,179.3,227.1,179.3z"/>
	<g>
		<g>
			<path class="st3" d="M144.9,86h1.6v1.6c-0.4,0.1-0.9,0.2-1.4,0.2c-1.4,0-2.1-0.8-2.1-2.3c0-0.9,0.2-1.5,0.5-1.9
				c0.4-0.4,1-0.6,1.8-0.6c0.8,0,1.5,0.1,2,0.3v-1.3c-0.6-0.2-1.3-0.3-2.1-0.3c-1.2,0-2.1,0.3-2.8,1c-0.6,0.7-1,1.6-1,2.8
				c0,1.1,0.3,2,0.9,2.6c0.6,0.6,1.5,0.9,2.7,0.9c0.6,0,1.1-0.1,1.6-0.2c0.4-0.1,0.8-0.3,1.1-0.4v-3.5h-2.9V86z"/>
			<path class="st3" d="M151.5,83.7c-0.9,0-1.5,0.2-2,0.7c-0.5,0.5-0.7,1.1-0.7,2c0,0.9,0.3,1.6,0.8,2c0.5,0.5,1.2,0.7,2.2,0.7
				c0.8,0,1.4-0.1,1.9-0.3v-1.1c-0.2,0.1-0.5,0.1-0.7,0.2c-0.3,0.1-0.6,0.1-0.9,0.1c-0.6,0-1-0.1-1.3-0.2c-0.3-0.2-0.5-0.4-0.6-0.8
				h3.8V86c0-0.7-0.2-1.3-0.7-1.7S152.3,83.7,151.5,83.7z M152.7,86h-2.5c0-0.4,0.1-0.8,0.3-1c0.2-0.2,0.5-0.3,1-0.3
				c0.8,0,1.2,0.3,1.2,1V86z"/>
			<path class="st3" d="M157.3,87.9c-0.1-0.1-0.2-0.3-0.2-0.6V85h1.2l0.1-1.1h-1.3v-1.6l-1.5,0.4v1.1h-0.7V85h0.7v2.4
				c0,0.6,0.1,1,0.4,1.3c0.3,0.3,0.7,0.5,1.3,0.5c0.4,0,0.8-0.1,1.2-0.2v-1c-0.2,0.1-0.4,0.1-0.6,0.1C157.6,88,157.4,88,157.3,87.9z
				"/>
			<polygon class="st3" points="169.9,86.7 168.5,81.9 167.3,81.9 167.3,82.9 166.2,86.7 165.1,81.9 163.6,81.9 165.3,89 166.7,89 
				168.1,84.5 169.4,89 170.8,89 172.5,81.9 171,81.9 			"/>
			<polygon class="st3" points="173.3,84.9 174,84.9 174,89 175.5,89 175.5,83.8 173.4,83.8 			"/>
			<rect x="173.9" y="81.7" class="st3" width="1.6" height="1.2"/>
			<path class="st3" d="M180.8,84.1c-0.4-0.3-0.9-0.4-1.5-0.4c-0.5,0-0.9,0.1-1.3,0.3s-0.7,0.6-0.9,1s-0.3,0.9-0.3,1.5
				c0,0.9,0.2,1.5,0.6,2c0.4,0.4,1,0.6,1.8,0.6c0.4,0,0.7,0,0.9-0.1c0.3-0.1,0.5-0.2,0.7-0.4L181,89h1.3v-7.4h-1.5V84.1z
				 M180.8,87.6c-0.2,0.2-0.3,0.3-0.5,0.4c-0.2,0.1-0.4,0.1-0.6,0.1c-0.4,0-0.8-0.1-1-0.3c-0.2-0.2-0.3-0.6-0.3-1.1
				c0-0.6,0.1-1,0.4-1.3c0.2-0.3,0.6-0.5,1-0.5c0.4,0,0.8,0.1,1.1,0.4V87.6z"/>
			<path class="st3" d="M186.7,83.7c-0.2,0-0.4,0-0.5,0c-0.8,0-1.5,0.2-1.9,0.5s-0.6,0.8-0.6,1.5c0,0.7,0.3,1.2,0.9,1.5
				c-0.2,0.1-0.4,0.2-0.6,0.4c-0.1,0.2-0.2,0.4-0.2,0.6c0,0.3,0.1,0.6,0.4,0.8c0.2,0.2,0.6,0.3,1,0.3h1.4c0.3,0,0.5,0,0.6,0.1
				s0.2,0.1,0.2,0.2c0,0.1-0.1,0.2-0.3,0.3c-0.2,0.1-0.6,0.1-1.1,0.1c-0.4,0-0.7,0-1.1-0.1c-0.4-0.1-0.7-0.1-1-0.2v1.1
				c0.3,0.1,0.6,0.2,1,0.2c0.4,0.1,0.8,0.1,1.2,0.1c1.8,0,2.7-0.5,2.7-1.5c0-0.4-0.1-0.8-0.4-1c-0.3-0.2-0.7-0.4-1.2-0.4h-1.5
				c-0.2,0-0.3,0-0.3-0.1c-0.1,0-0.1-0.1-0.1-0.2c0-0.1,0.1-0.2,0.2-0.3c0.1-0.1,0.3-0.1,0.6-0.2c0.2,0,0.5,0.1,0.7,0.1
				c0.6,0,1.1-0.2,1.5-0.5s0.5-0.7,0.5-1.3c0-0.4-0.1-0.7-0.3-0.9h0.8l0-0.9h-2C187,83.8,186.9,83.8,186.7,83.7z M187.1,86.3
				c-0.2,0.2-0.5,0.2-0.9,0.2s-0.7-0.1-0.9-0.2c-0.2-0.2-0.3-0.4-0.3-0.8c0-0.4,0.1-0.6,0.3-0.8s0.5-0.2,0.9-0.2
				c0.4,0,0.7,0.1,0.9,0.2c0.2,0.2,0.3,0.4,0.3,0.8C187.3,85.9,187.2,86.2,187.1,86.3z"/>
			<path class="st3" d="M192.4,83.7c-0.9,0-1.5,0.2-2,0.7c-0.5,0.5-0.7,1.1-0.7,2c0,0.9,0.3,1.6,0.8,2c0.5,0.5,1.2,0.7,2.2,0.7
				c0.8,0,1.4-0.1,1.9-0.3v-1.1c-0.2,0.1-0.5,0.1-0.7,0.2c-0.3,0.1-0.6,0.1-0.9,0.1c-0.6,0-1-0.1-1.3-0.2c-0.3-0.2-0.5-0.4-0.6-0.8
				h3.8V86c0-0.7-0.2-1.3-0.7-1.7S193.2,83.7,192.4,83.7z M193.6,86h-2.5c0-0.4,0.1-0.8,0.3-1c0.2-0.2,0.5-0.3,1-0.3
				c0.8,0,1.2,0.3,1.2,1V86z"/>
			<path class="st3" d="M198.8,88c-0.3,0-0.5-0.1-0.6-0.2c-0.1-0.1-0.2-0.3-0.2-0.6V85h1.2l0.1-1.1H198v-1.6l-1.5,0.4v1.1h-0.7V85
				h0.7v2.4c0,0.6,0.1,1,0.4,1.3c0.3,0.3,0.7,0.5,1.3,0.5c0.4,0,0.8-0.1,1.2-0.2v-1C199.2,88,199,88,198.8,88z"/>
		</g>
		<g>
			<g>
				<g>
					<path class="st3" d="M172.5,68c0-0.5-0.5-1-1-1h-9v2h9C172,69,172.5,68.6,172.5,68z"/>
				</g>
				<g>
					<path class="st3" d="M171.5,64c0-0.5-0.5-1-1-1h-8v2h8C171,65,171.5,64.6,171.5,64z"/>
				</g>
				<g>
					<path class="st3" d="M176.5,58h-12c-1.1,0-2,0.9-2,2v1h8c1.7,0,3,1.3,3,3c0,0.5-0.2,1-0.4,1.5c0.8,0.5,1.4,1.5,1.4,2.5
						c0,1.6-1.3,3-3,3h-9v1c0,1.1,0.9,2,2,2h12c1.1,0,2-0.9,2-2V60C178.5,58.9,177.6,58,176.5,58z"/>
				</g>
			</g>
		</g>
		<g>
			<rect x="140" y="103.3" class="st1" width="60" height="60"/>
			<g>
				<rect x="163.1" y="108.4" class="st2" width="1.5" height="1.5"/>
				<rect x="179.6" y="108.4" class="st2" width="1.5" height="1.5"/>
				<path class="st2" d="M193.1,108.4h-1.5h-1.5h-1.5h-1.5h-1.5h-1.5v1.5v1.5v1.5v1.5v1.5v1.5v1.5h1.5h1.5h1.5h1.5h1.5h1.5h1.5v-1.5
					v-1.5v-1.5v-1.5v-1.5v-1.5v-1.5H193.1z M193.1,111.4v1.5v1.5v1.5v1.5h-1.5h-1.5h-1.5h-1.5h-1.5v-1.5v-1.5v-1.5v-1.5v-1.5h1.5
					h1.5h1.5h1.5h1.5V111.4z"/>
				<rect x="157.1" y="109.9" class="st2" width="1.5" height="1.5"/>
				<polygon class="st2" points="161.6,109.9 161.6,108.4 160.1,108.4 160.1,109.9 160.1,111.4 161.6,111.4 				"/>
				<polygon class="st2" points="170.6,109.9 170.6,108.4 169.1,108.4 169.1,109.9 167.6,109.9 166.1,109.9 166.1,111.4 
					167.6,111.4 169.1,111.4 169.1,112.9 170.6,112.9 170.6,111.4 				"/>
				<polygon class="st2" points="188.6,111.4 187.1,111.4 187.1,112.9 187.1,114.4 187.1,115.9 188.6,115.9 190.1,115.9 
					191.6,115.9 191.6,114.4 191.6,112.9 191.6,111.4 190.1,111.4 				"/>
				<polygon class="st2" points="166.1,114.4 167.6,114.4 167.6,112.9 166.1,112.9 164.6,112.9 164.6,111.4 163.1,111.4 
					163.1,112.9 163.1,114.4 164.6,114.4 				"/>
				<rect x="170.6" y="112.9" class="st2" width="1.5" height="1.5"/>
				<rect x="181.1" y="112.9" class="st2" width="1.5" height="1.5"/>
				<polygon class="st2" points="151.1,115.9 152.6,115.9 152.6,114.4 152.6,112.9 152.6,111.4 151.1,111.4 149.6,111.4 
					148.1,111.4 148.1,112.9 148.1,114.4 148.1,115.9 149.6,115.9 				"/>
				<polygon class="st2" points="175.1,114.4 175.1,112.9 176.6,112.9 178.1,112.9 178.1,114.4 176.6,114.4 176.6,115.9 
					178.1,115.9 178.1,117.4 178.1,118.9 179.6,118.9 179.6,117.4 179.6,115.9 181.1,115.9 181.1,114.4 179.6,114.4 179.6,112.9 
					179.6,111.4 178.1,111.4 178.1,109.9 176.6,109.9 176.6,108.4 175.1,108.4 173.6,108.4 172.1,108.4 172.1,109.9 172.1,111.4 
					173.6,111.4 173.6,109.9 175.1,109.9 175.1,111.4 173.6,111.4 173.6,112.9 173.6,114.4 173.6,115.9 175.1,115.9 				"/>
				<polygon class="st2" points="160.1,117.4 160.1,115.9 160.1,114.4 161.6,114.4 161.6,112.9 160.1,112.9 158.6,112.9 
					157.1,112.9 157.1,114.4 158.6,114.4 158.6,115.9 157.1,115.9 157.1,117.4 157.1,118.9 158.6,118.9 158.6,117.4 				"/>
				<path class="st2" d="M148.1,118.9h1.5h1.5h1.5h1.5h1.5v-1.5v-1.5v-1.5v-1.5v-1.5v-1.5v-1.5h-1.5h-1.5h-1.5h-1.5h-1.5h-1.5h-1.5
					v1.5v1.5v1.5v1.5v1.5v1.5v1.5h1.5H148.1z M146.6,115.9v-1.5v-1.5v-1.5v-1.5h1.5h1.5h1.5h1.5h1.5v1.5v1.5v1.5v1.5v1.5h-1.5h-1.5
					h-1.5h-1.5h-1.5V115.9z"/>
				<polygon class="st2" points="163.1,118.9 164.6,118.9 164.6,117.4 164.6,115.9 163.1,115.9 161.6,115.9 161.6,117.4 
					163.1,117.4 				"/>
				<polygon class="st2" points="167.6,118.9 167.6,117.4 169.1,117.4 169.1,118.9 170.6,118.9 170.6,117.4 172.1,117.4 
					172.1,118.9 173.6,118.9 173.6,117.4 173.6,115.9 172.1,115.9 170.6,115.9 170.6,114.4 169.1,114.4 169.1,115.9 167.6,115.9 
					166.1,115.9 166.1,117.4 166.1,118.9 166.1,120.4 167.6,120.4 				"/>
				<polygon class="st2" points="181.1,120.4 181.1,121.9 182.6,121.9 184.1,121.9 184.1,120.4 182.6,120.4 182.6,118.9 
					182.6,117.4 181.1,117.4 181.1,118.9 179.6,118.9 179.6,120.4 				"/>
				<polygon class="st2" points="152.6,121.9 152.6,120.4 151.1,120.4 149.6,120.4 148.1,120.4 146.6,120.4 145.1,120.4 
					145.1,121.9 146.6,121.9 148.1,121.9 148.1,123.4 149.6,123.4 151.1,123.4 151.1,121.9 				"/>
				<rect x="167.6" y="120.4" class="st2" width="1.5" height="1.5"/>
				<rect x="170.6" y="120.4" class="st2" width="1.5" height="1.5"/>
				<rect x="178.1" y="120.4" class="st2" width="1.5" height="1.5"/>
				<rect x="185.6" y="120.4" class="st2" width="1.5" height="1.5"/>
				<rect x="188.6" y="120.4" class="st2" width="1.5" height="1.5"/>
				<polygon class="st2" points="193.1,120.4 191.6,120.4 191.6,121.9 190.1,121.9 190.1,123.4 191.6,123.4 191.6,124.9 
					193.1,124.9 193.1,123.4 194.6,123.4 194.6,121.9 193.1,121.9 				"/>
				<polygon class="st2" points="164.6,123.4 164.6,124.9 166.1,124.9 167.6,124.9 167.6,126.4 169.1,126.4 170.6,126.4 
					170.6,124.9 172.1,124.9 173.6,124.9 173.6,123.4 172.1,123.4 170.6,123.4 170.6,121.9 169.1,121.9 169.1,123.4 167.6,123.4 
					166.1,123.4 166.1,121.9 166.1,120.4 164.6,120.4 164.6,121.9 163.1,121.9 163.1,123.4 				"/>
				<rect x="179.6" y="121.9" class="st2" width="1.5" height="1.5"/>
				<polygon class="st2" points="160.1,124.9 161.6,124.9 161.6,123.4 161.6,121.9 160.1,121.9 160.1,123.4 				"/>
				<polygon class="st2" points="188.6,124.9 190.1,124.9 190.1,123.4 188.6,123.4 187.1,123.4 185.6,123.4 185.6,121.9 
					184.1,121.9 184.1,123.4 184.1,124.9 185.6,124.9 185.6,126.4 187.1,126.4 187.1,124.9 				"/>
				<polygon class="st2" points="182.6,126.4 181.1,126.4 181.1,127.9 182.6,127.9 184.1,127.9 184.1,126.4 184.1,124.9 
					182.6,124.9 				"/>
				<rect x="190.1" y="124.9" class="st2" width="1.5" height="1.5"/>
				<polygon class="st2" points="146.6,126.4 145.1,126.4 145.1,127.9 145.1,129.4 146.6,129.4 146.6,130.9 145.1,130.9 
					145.1,132.4 146.6,132.4 148.1,132.4 148.1,130.9 148.1,129.4 148.1,127.9 146.6,127.9 				"/>
				<rect x="154.1" y="126.4" class="st2" width="1.5" height="1.5"/>
				<polygon class="st2" points="164.6,126.4 164.6,124.9 163.1,124.9 163.1,126.4 163.1,127.9 164.6,127.9 166.1,127.9 
					166.1,129.4 167.6,129.4 167.6,127.9 167.6,126.4 166.1,126.4 				"/>
				<rect x="170.6" y="126.4" class="st2" width="1.5" height="1.5"/>
				<polygon class="st2" points="187.1,126.4 187.1,127.9 188.6,127.9 190.1,127.9 190.1,126.4 188.6,126.4 				"/>
				<rect x="179.6" y="127.9" class="st2" width="1.5" height="1.5"/>
				<rect x="184.1" y="127.9" class="st2" width="1.5" height="1.5"/>
				<rect x="167.6" y="129.4" class="st2" width="1.5" height="1.5"/>
				<polygon class="st2" points="193.1,129.4 194.6,129.4 194.6,127.9 193.1,127.9 191.6,127.9 191.6,129.4 191.6,130.9 
					193.1,130.9 				"/>
				<polygon class="st2" points="185.6,132.4 185.6,133.9 187.1,133.9 188.6,133.9 188.6,132.4 187.1,132.4 187.1,130.9 
					188.6,130.9 188.6,129.4 187.1,129.4 185.6,129.4 185.6,130.9 				"/>
				<rect x="190.1" y="130.9" class="st2" width="1.5" height="1.5"/>
				<rect x="148.1" y="132.4" class="st2" width="1.5" height="1.5"/>
				<polygon class="st2" points="157.1,133.9 157.1,135.4 157.1,136.9 158.6,136.9 158.6,135.4 160.1,135.4 160.1,133.9 
					161.6,133.9 163.1,133.9 163.1,132.4 163.1,130.9 164.6,130.9 164.6,129.4 163.1,129.4 161.6,129.4 160.1,129.4 160.1,127.9 
					161.6,127.9 161.6,126.4 160.1,126.4 158.6,126.4 158.6,124.9 158.6,123.4 157.1,123.4 157.1,121.9 158.6,121.9 160.1,121.9 
					160.1,120.4 161.6,120.4 161.6,121.9 163.1,121.9 163.1,120.4 163.1,118.9 161.6,118.9 161.6,117.4 160.1,117.4 160.1,118.9 
					158.6,118.9 158.6,120.4 157.1,120.4 155.6,120.4 154.1,120.4 154.1,121.9 155.6,121.9 155.6,123.4 154.1,123.4 152.6,123.4 
					151.1,123.4 151.1,124.9 151.1,126.4 149.6,126.4 149.6,124.9 148.1,124.9 146.6,124.9 146.6,126.4 148.1,126.4 148.1,127.9 
					149.6,127.9 151.1,127.9 151.1,129.4 149.6,129.4 149.6,130.9 151.1,130.9 152.6,130.9 154.1,130.9 155.6,130.9 155.6,129.4 
					154.1,129.4 154.1,127.9 152.6,127.9 152.6,126.4 152.6,124.9 154.1,124.9 155.6,124.9 157.1,124.9 157.1,126.4 157.1,127.9 
					155.6,127.9 155.6,129.4 157.1,129.4 158.6,129.4 158.6,130.9 160.1,130.9 160.1,132.4 158.6,132.4 157.1,132.4 155.6,132.4 
					154.1,132.4 154.1,133.9 155.6,133.9 				"/>
				<rect x="182.6" y="132.4" class="st2" width="1.5" height="1.5"/>
				<polygon class="st2" points="152.6,133.9 151.1,133.9 151.1,135.4 152.6,135.4 154.1,135.4 154.1,133.9 				"/>
				<rect x="184.1" y="133.9" class="st2" width="1.5" height="1.5"/>
				<rect x="145.1" y="135.4" class="st2" width="1.5" height="1.5"/>
				<rect x="154.1" y="135.4" class="st2" width="1.5" height="1.5"/>
				<polygon class="st2" points="182.6,136.9 182.6,138.4 181.1,138.4 181.1,136.9 179.6,136.9 179.6,138.4 178.1,138.4 
					178.1,139.9 179.6,139.9 179.6,141.4 181.1,141.4 182.6,141.4 182.6,139.9 184.1,139.9 184.1,138.4 185.6,138.4 185.6,136.9 
					184.1,136.9 184.1,135.4 182.6,135.4 				"/>
				<polygon class="st2" points="188.6,136.9 190.1,136.9 190.1,135.4 190.1,133.9 188.6,133.9 188.6,135.4 				"/>
				<polygon class="st2" points="193.1,135.4 194.6,135.4 194.6,133.9 193.1,133.9 193.1,132.4 191.6,132.4 191.6,133.9 
					191.6,135.4 191.6,136.9 193.1,136.9 				"/>
				<polygon class="st2" points="148.1,138.4 149.6,138.4 149.6,136.9 149.6,135.4 148.1,135.4 148.1,136.9 146.6,136.9 
					146.6,138.4 				"/>
				<polygon class="st2" points="152.6,136.9 151.1,136.9 151.1,138.4 152.6,138.4 154.1,138.4 154.1,136.9 				"/>
				<rect x="190.1" y="136.9" class="st2" width="1.5" height="1.5"/>
				<rect x="154.1" y="138.4" class="st2" width="1.5" height="1.5"/>
				<polygon class="st2" points="161.6,139.9 161.6,138.4 161.6,136.9 160.1,136.9 160.1,138.4 158.6,138.4 157.1,138.4 
					157.1,139.9 158.6,139.9 158.6,141.4 160.1,141.4 160.1,139.9 				"/>
				<polygon class="st2" points="184.1,139.9 184.1,141.4 185.6,141.4 187.1,141.4 187.1,139.9 188.6,139.9 188.6,138.4 
					188.6,136.9 187.1,136.9 187.1,138.4 185.6,138.4 185.6,139.9 				"/>
				<polygon class="st2" points="191.6,141.4 191.6,142.9 193.1,142.9 193.1,141.4 194.6,141.4 194.6,139.9 193.1,139.9 
					193.1,138.4 191.6,138.4 191.6,139.9 				"/>
				<polygon class="st2" points="149.6,141.4 148.1,141.4 148.1,142.9 149.6,142.9 151.1,142.9 151.1,141.4 				"/>
				<path class="st2" d="M190.1,141.4v-1.5h-1.5v1.5h-1.5v1.5v1.5h-1.5h-1.5v-1.5v-1.5h-1.5v1.5v1.5h-1.5v-1.5h-1.5v-1.5h-1.5v-1.5
					h-1.5h-1.5v-1.5h1.5h1.5v-1.5h1.5v-1.5h1.5v-1.5h-1.5v-1.5h1.5h1.5v-1.5h1.5v-1.5h-1.5h-1.5v1.5h-1.5v-1.5h-1.5v1.5h-1.5v-1.5
					v-1.5h-1.5v-1.5h1.5h1.5h1.5v-1.5v-1.5h-1.5v-1.5h-1.5v-1.5h1.5v-1.5h-1.5v-1.5h-1.5v1.5v1.5v1.5h-1.5v1.5h1.5h1.5v1.5h-1.5
					h-1.5v1.5v1.5h-1.5v1.5h1.5h1.5v1.5v1.5v1.5h-1.5v1.5h1.5v1.5h-1.5h-1.5v1.5h-1.5h-1.5v-1.5h1.5v-1.5v-1.5h1.5v-1.5h-1.5h-1.5
					h-1.5h-1.5h-1.5v1.5h-1.5v1.5h1.5v1.5h1.5h1.5v1.5h-1.5h-1.5v-1.5h-1.5v1.5v1.5h1.5h1.5h1.5h1.5v1.5h-1.5h-1.5h-1.5h-1.5h-1.5
					h-1.5v1.5h-1.5v-1.5h-1.5v-1.5h-1.5v1.5h-1.5v-1.5h-1.5v1.5v1.5h1.5h1.5h1.5v1.5h1.5h1.5v1.5v1.5v1.5h-1.5v1.5h-1.5v1.5v1.5v1.5
					v1.5v1.5h1.5h1.5h1.5h1.5v-1.5v-1.5h1.5v-1.5h-1.5h-1.5v-1.5v-1.5v-1.5v-1.5v-1.5h1.5v-1.5v-1.5h1.5h1.5v1.5h1.5v-1.5h1.5v1.5
					h1.5v-1.5v-1.5h1.5h1.5h1.5v1.5h1.5v1.5h1.5v1.5h-1.5h-1.5h-1.5v1.5h1.5v1.5h1.5v-1.5h1.5h1.5v-1.5h1.5v1.5h-1.5v1.5h-1.5h-1.5
					v1.5h1.5v1.5h-1.5h-1.5h-1.5v1.5h1.5v1.5h1.5v1.5h1.5v-1.5h1.5v-1.5h1.5h1.5v-1.5h1.5h1.5v1.5h1.5h1.5v-1.5v-1.5h1.5h1.5h1.5
					v-1.5v-1.5h-1.5v-1.5h-1.5h-1.5v-1.5h1.5h1.5v-1.5h-1.5V141.4z M176.6,132.4h1.5v1.5h-1.5V132.4z M166.1,135.4v-1.5h1.5h1.5v1.5
					h-1.5H166.1z M161.6,156.4h-1.5v-1.5h1.5V156.4z M160.1,153.4h-1.5v-1.5h1.5V153.4z M179.6,151.9v-1.5h1.5v1.5H179.6z
					 M187.1,147.4v1.5v1.5h-1.5h-1.5h-1.5v-1.5v-1.5v-1.5h1.5h1.5h1.5V147.4z"/>
				<polygon class="st2" points="151.1,144.4 149.6,144.4 148.1,144.4 148.1,145.9 149.6,145.9 151.1,145.9 152.6,145.9 
					154.1,145.9 155.6,145.9 155.6,144.4 154.1,144.4 152.6,144.4 152.6,142.9 151.1,142.9 				"/>
				<rect x="173.6" y="142.9" class="st2" width="1.5" height="1.5"/>
				<polygon class="st2" points="146.6,144.4 146.6,142.9 146.6,141.4 146.6,139.9 145.1,139.9 145.1,141.4 145.1,142.9 
					145.1,144.4 145.1,145.9 146.6,145.9 				"/>
				<polygon class="st2" points="172.1,145.9 173.6,145.9 173.6,144.4 172.1,144.4 170.6,144.4 170.6,145.9 				"/>
				<polygon class="st2" points="158.6,145.9 157.1,145.9 157.1,147.4 157.1,148.9 158.6,148.9 158.6,147.4 				"/>
				<polygon class="st2" points="194.6,145.9 194.6,144.4 193.1,144.4 193.1,145.9 193.1,147.4 194.6,147.4 				"/>
				<path class="st2" d="M152.6,147.4h-1.5h-1.5h-1.5h-1.5h-1.5v1.5v1.5v1.5v1.5v1.5v1.5v1.5h1.5h1.5h1.5h1.5h1.5h1.5h1.5v-1.5v-1.5
					v-1.5v-1.5v-1.5v-1.5v-1.5h-1.5H152.6z M154.1,150.4v1.5v1.5v1.5v1.5h-1.5h-1.5h-1.5h-1.5h-1.5v-1.5v-1.5v-1.5v-1.5v-1.5h1.5
					h1.5h1.5h1.5h1.5V150.4z"/>
				<polygon class="st2" points="170.6,147.4 169.1,147.4 167.6,147.4 166.1,147.4 166.1,145.9 164.6,145.9 163.1,145.9 
					163.1,147.4 164.6,147.4 164.6,148.9 163.1,148.9 163.1,150.4 163.1,151.9 164.6,151.9 164.6,150.4 166.1,150.4 166.1,148.9 
					167.6,148.9 167.6,150.4 169.1,150.4 170.6,150.4 170.6,148.9 				"/>
				<rect x="172.1" y="147.4" class="st2" width="1.5" height="1.5"/>
				<rect x="184.1" y="147.4" class="st2" width="1.5" height="1.5"/>
				<rect x="173.6" y="148.9" class="st2" width="1.5" height="1.5"/>
				<polygon class="st2" points="149.6,150.4 148.1,150.4 148.1,151.9 148.1,153.4 148.1,154.9 149.6,154.9 151.1,154.9 
					152.6,154.9 152.6,153.4 152.6,151.9 152.6,150.4 151.1,150.4 				"/>
				<rect x="166.1" y="150.4" class="st2" width="1.5" height="1.5"/>
				<polygon class="st2" points="172.1,150.4 170.6,150.4 170.6,151.9 172.1,151.9 173.6,151.9 173.6,150.4 				"/>
				<rect x="190.1" y="151.9" class="st2" width="1.5" height="1.5"/>
				<polygon class="st2" points="170.6,153.4 169.1,153.4 167.6,153.4 167.6,154.9 169.1,154.9 169.1,156.4 170.6,156.4 
					170.6,154.9 				"/>
				<rect x="191.6" y="153.4" class="st2" width="1.5" height="1.5"/>
				<rect x="166.1" y="154.9" class="st2" width="1.5" height="1.5"/>
				<polygon class="st2" points="172.1,156.4 170.6,156.4 170.6,157.9 172.1,157.9 173.6,157.9 173.6,156.4 173.6,154.9 
					172.1,154.9 				"/>
				<polygon class="st2" points="187.1,154.9 185.6,154.9 185.6,153.4 184.1,153.4 184.1,154.9 182.6,154.9 182.6,156.4 
					184.1,156.4 184.1,157.9 185.6,157.9 187.1,157.9 188.6,157.9 188.6,156.4 187.1,156.4 				"/>
				<polygon class="st2" points="188.6,156.4 190.1,156.4 191.6,156.4 191.6,154.9 190.1,154.9 190.1,153.4 188.6,153.4 
					188.6,154.9 				"/>
				<polygon class="st2" points="179.6,156.4 178.1,156.4 178.1,157.9 179.6,157.9 181.1,157.9 182.6,157.9 182.6,156.4 
					181.1,156.4 				"/>
				<rect x="191.6" y="156.4" class="st2" width="1.5" height="1.5"/>
			</g>
		</g>
	</g>
</g>
</svg>
